<?xml version="1.0" encoding="utf-8"?>
<!-- Generator: Adobe Illustrator 18.0.0, SVG Export Plug-In . SVG Version: 6.00 Build 0)  -->
<!DOCTYPE svg PUBLIC "-//W3C//DTD SVG 1.1//EN" "http://www.w3.org/Graphics/SVG/1.1/DTD/svg11.dtd">
<svg version="1.1" id="Layer_1" xmlns="http://www.w3.org/2000/svg" xmlns:xlink="http://www.w3.org/1999/xlink" x="0px" y="0px"
	 width="40px" height="56px" viewBox="0 -0.5 40 56" enable-background="new 0 -0.5 40 56" xml:space="preserve">
<path fill="#FFFFFF" d="M39.02,53.44l-17.87-3.91v-3.26l16.12,3.53c0.04,0.01,0.09,0.01,0.13,0.01c0.28,0,0.53-0.19,0.59-0.48
	c0.07-0.33-0.14-0.65-0.46-0.73l-16.38-3.59v-3.26l14.64,3.2c0.04,0.01,0.09,0.01,0.13,0.01c0.28,0,0.53-0.19,0.59-0.48
	c0.07-0.33-0.14-0.65-0.46-0.73l-14.9-3.26v-3.26l13.15,2.88c0.04,0.01,0.09,0.01,0.13,0.01c0.28,0,0.53-0.19,0.59-0.48
	c0.07-0.33-0.14-0.65-0.46-0.73l-13.42-2.94v-3.26l11.67,2.55c0.04,0.01,0.09,0.01,0.13,0.01c0.28,0,0.53-0.19,0.59-0.48
	c0.07-0.33-0.14-0.65-0.46-0.73l-11.93-2.61v-3.26l10.19,2.23c0.04,0.01,0.09,0.01,0.13,0.01c0.28,0,0.53-0.19,0.59-0.48
	c0.07-0.33-0.14-0.65-0.46-0.73L21.16,27v-3.26l8.7,1.9c0.04,0.01,0.09,0.01,0.13,0.01c0.28,0,0.53-0.19,0.59-0.48
	c0.07-0.33-0.14-0.65-0.46-0.73l-8.96-1.96v-3.26l7.22,1.58c0.04,0.01,0.09,0.01,0.13,0.01c0.28,0,0.53-0.19,0.59-0.48
	c0.07-0.33-0.14-0.65-0.46-0.73L21.16,18v-3.26L26.89,16c0.04,0.01,0.09,0.01,0.13,0.01c0.28,0,0.53-0.19,0.59-0.48
	c0.07-0.33-0.14-0.65-0.46-0.73l-5.99-1.31v-3.26l4.25,0.93c0.04,0.01,0.09,0.01,0.13,0.01c0.28,0,0.53-0.19,0.59-0.48
	c0.07-0.33-0.14-0.65-0.46-0.73l-4.51-0.99V5.73l2.76,0.6c0.04,0.01,0.09,0.01,0.13,0.01c0.28,0,0.53-0.19,0.59-0.48
	c0.07-0.33-0.14-0.65-0.46-0.73l-3.02-0.66V2.14l0.51,0.08c0.05,0.01,0.1,0.02,0.14,0.02c0.28,0,0.53-0.19,0.59-0.47
	c0.08-0.33-0.12-0.52-0.45-0.73l-1.81-1.2c-0.01,0-0.01,0-0.02,0c-0.04-0.01-0.09-0.01-0.13,0c-0.04,0-0.08,0-0.11,0
	c-0.01,0-0.01,0-0.02,0l-1.81,1.2c-0.33,0.21-0.53,0.41-0.45,0.73c0.07,0.28,0.32,0.47,0.59,0.47c0.05,0,0.09-0.01,0.14-0.02
	l0.51-0.08v2.34l-3.02,0.66c-0.33,0.07-0.54,0.4-0.46,0.73c0.06,0.28,0.31,0.48,0.59,0.48c0.04,0,0.09,0,0.13-0.01l2.76-0.6v3.26
	l-4.51,0.99c-0.33,0.07-0.54,0.4-0.46,0.73c0.06,0.28,0.31,0.48,0.59,0.48c0.04,0,0.09,0,0.13-0.01l4.25-0.93v3.26l-5.99,1.31
	c-0.33,0.07-0.54,0.4-0.46,0.73c0.06,0.28,0.31,0.48,0.59,0.48c0.04,0,0.09,0,0.13-0.01l5.73-1.25V18l-7.48,1.64
	c-0.33,0.07-0.54,0.4-0.46,0.73c0.06,0.28,0.31,0.48,0.59,0.48c0.04,0,0.09,0,0.13-0.01l7.22-1.58v3.26l-8.96,1.96
	c-0.33,0.07-0.54,0.4-0.46,0.73c0.06,0.28,0.31,0.48,0.59,0.48c0.04,0,0.09,0,0.13-0.01l8.7-1.9v3.26L8.4,29.29
	c-0.33,0.07-0.54,0.4-0.46,0.73C8,30.3,8.25,30.5,8.53,30.5c0.04,0,0.09,0,0.13-0.01l10.19-2.23v3.26L6.91,34.12
	c-0.33,0.07-0.54,0.4-0.46,0.73c0.06,0.28,0.31,0.48,0.59,0.48c0.04,0,0.09,0,0.13-0.01l11.67-2.55v3.26L5.43,38.95
	c-0.33,0.07-0.54,0.4-0.46,0.73c0.06,0.28,0.31,0.48,0.59,0.48c0.04,0,0.09,0,0.13-0.01l13.15-2.88v3.26l-14.9,3.26
	c-0.33,0.07-0.54,0.4-0.46,0.73c0.06,0.28,0.31,0.48,0.59,0.48c0.04,0,0.09,0,0.13-0.01l14.64-3.2v3.26L2.46,48.61
	c-0.33,0.07-0.54,0.4-0.46,0.73c0.06,0.28,0.31,0.48,0.59,0.48c0.04,0,0.09,0,0.13-0.01l16.12-3.53v3.26L0.98,53.44
	c-0.33,0.07-0.54,0.4-0.46,0.73c0.06,0.28,0.31,0.48,0.59,0.48c0.04,0,0.09,0,0.13-0.01l17.61-3.85v3.57c0,0.64,0.52,1.16,1.16,1.16
	s1.16-0.52,1.16-1.16v-3.57l17.61,3.85c0.04,0.01,0.09,0.01,0.13,0.01c0.28,0,0.53-0.19,0.59-0.48
	C39.56,53.83,39.35,53.51,39.02,53.44z"/>
</svg>
