<?xml version="1.0" encoding="utf-8"?>
<!-- Generator: Adobe Illustrator 18.0.0, SVG Export Plug-In . SVG Version: 6.00 Build 0)  -->
<!DOCTYPE svg PUBLIC "-//W3C//DTD SVG 1.1//EN" "http://www.w3.org/Graphics/SVG/1.1/DTD/svg11.dtd">
<svg version="1.1" id="Layer_1" xmlns="http://www.w3.org/2000/svg" xmlns:xlink="http://www.w3.org/1999/xlink" x="0px" y="0px"
	 width="160px" height="122px" viewBox="0 0 160 122" enable-background="new 0 0 160 122" xml:space="preserve">
<g>
	<path fill="none" stroke="#FFFFFF" stroke-width="0.3389" d="M52.6,0.2v20c0,10.1,0,21.6,0,26.8c0,4.1,1.4,7.2,3.7,9.4
		c3.3,3.3,8.2,4.7,12.7,5.9c4.5,1.2,8.7,2.2,10.3,3.9L80,67l0.7-0.7c2.2-2.3,8.8-3.3,14.9-5.2c3-1,6-2.4,8.2-4.6
		c2.2-2.2,3.7-5.3,3.7-9.4c0-5.2,0-16.7,0-26.8v-20H52.6z"/>
	<g>
		<g>
			<g>
				<path fill="#FFFFFF" d="M0.1,104.3L0,105.2h22.1l0.9-7.7l-0.8-0.2c-0.5,2.3-1.6,4.2-2.7,5.2c-0.8,0.7-2.3,1.4-4.5,1.4
					c-2.7,0-5.6-0.3-6.2-0.6c-0.4-0.2-0.4-3.1-0.4-11.1c0-8,0-11.3,0.4-11.5C9.5,80.3,10.8,80,12,80l0.1-0.8H0L0.1,80
					c1.3,0,2.7,0.2,3.3,0.6c0.4,0.2,0.4,3.6,0.4,11.5c0,8,0,11.3-0.4,11.5C2.8,104.1,1.3,104.3,0.1,104.3z"/>
				<path fill="#FFFFFF" d="M150.3,103.8c-0.7,0.3-1.9,0.5-3.2,0.5l-0.1,0.8H160l-0.1-0.8c-1.3,0-2.4-0.5-3.1-0.9
					c-1.2-0.8-1.3-1.1-10.2-25l-1.4,0.1c-7.4,18.5-9.1,22.2-10.7,24.3c-0.8,0.9-1.7,1.3-3.1,1.5l-0.1,0.8h8.5l-0.1-0.8
					c-2.6-0.3-2.7-0.7-2.7-1.6c0-0.9,0.3-1.9,2.3-6.8c1-0.1,2.7-0.1,6-0.1h3.5c0.2,0.6,0.3,1.1,0.5,1.6
					C151.2,103,151,103.4,150.3,103.8z M145.4,94.8c-2.8,0-4.4,0-5.5-0.1c1-2.5,2.4-5.9,4.3-10.3c0.1-0.1,0.2-0.2,0.3,0
					c1,2.4,2.7,6.8,4,10.4H145.4z"/>
				<path fill="#FFFFFF" d="M68.5,103.7c-0.3-0.2-0.4-2.5-0.4-7.1c0-3.1,0.1-3.6,1.4-5.7c3.2-5,5.2-7.8,7-9.6
					c0.8-0.8,2.4-1.2,3.6-1.2l0.1-0.8l-9.9-0.1l0.1,0.8c2.3,0,3.1,0.7,3.1,1.1c0,1.2-0.4,1.7-6.5,11.2c-5-8.2-6.6-10.9-6.6-11.4
					c0-0.5,1.9-0.9,3.7-0.9l0.1-0.8l-12.4,0.1l0.1,0.8c1.3,0,2,0.2,2.8,0.6c1,0.6,3.6,4.5,7.7,11.5c1,1.9,1.2,2.5,1.2,3.9
					c0,5.6-0.1,7.4-0.4,7.5c-0.6,0.4-2.4,0.6-3.6,0.6l-0.1,0.8h12.8l-0.1-0.8C70.8,104.3,69.1,104.1,68.5,103.7z"/>
				<path fill="#FFFFFF" d="M108.1,104.3l-0.1,0.8h22.1l0.9-7.7l-0.8-0.2c-0.5,2.3-1.6,4.2-2.7,5.2c-0.8,0.7-2.3,1.4-4.5,1.4
					c-2.7,0-5.6-0.3-6.2-0.6c-0.4-0.2-0.4-3.1-0.4-11.1c0-8,0-11.3,0.4-11.5c0.6-0.3,2-0.6,3.1-0.6l0.1-0.8h-12l0.1,0.8
					c1.3,0,2.7,0.2,3.3,0.6c0.4,0.2,0.4,3.6,0.4,11.5c0,8,0,11.3-0.4,11.5C110.8,104.1,109.3,104.3,108.1,104.3z"/>
				<path fill="#FFFFFF" d="M40.9,119L40.9,119c-0.2,0.8-0.5,1.3-0.8,1.6c-0.3,0.3-0.7,0.5-1.4,0.5c-0.7,0-1.2-0.1-1.3-0.1
					c-0.1-0.1-0.1-1.1-0.1-2.7c0-0.2,0-0.3,0.1-0.3c0.1,0,0,0,0.6,0c0.4,0,0.6,0,0.8,0.2c0.2,0.1,0.3,0.4,0.4,0.8l0,0l0.3,0l0.1,0
					v-2.6l-0.3,0l-0.1,0l0,0.1c-0.1,0.4-0.2,0.6-0.4,0.8c-0.2,0.1-0.4,0.2-0.9,0.2c-0.6,0-0.5,0-0.6-0.1c-0.1,0-0.1-0.1-0.1-0.3
					c0-0.7,0-1.3,0-1.8c0-0.2,0-0.4,0-0.5c0-0.1,0-0.1,0-0.1c0,0,0,0,0,0c0.1-0.1,0.4-0.1,1.1-0.1c0.6,0,1,0.2,1.3,0.4
					c0.3,0.3,0.6,0.6,0.7,1.2l0,0.1l0.3-0.1l0.1,0l-0.2-2.1h-6.1l0,0.3l0,0.1h0.1c0.3,0,0.7,0.1,0.9,0.2c0,0,0,0,0,0
					c0.1,0.2,0.1,1.3,0.1,3.2c0,1.1,0,1.9,0,2.5c0,0.3,0,0.5,0,0.6c0,0.1,0,0.1,0,0.1c0,0,0,0,0,0c-0.2,0.1-0.5,0.2-0.9,0.2h-0.1
					l0,0.3l0,0.1h6.3l0-0.1l0.3-2.4L40.9,119L40.9,119z"/>
				<path fill="#FFFFFF" d="M31.1,114.3L31.1,114.3L31.1,114.3c0.8,0.1,0.7,0.2,0.8,0.5c0,0.3-0.3,1.1-1.8,4.9
					c-0.4-0.8-1-2.5-1.3-3.3c-0.4-1-0.5-1.5-0.5-1.7c0-0.1,0-0.1,0.1-0.1c0.2-0.1,0.4-0.2,0.8-0.2h0.1l0-0.3l0-0.1h-4l0,0.3l0,0.1
					h0.1c0.4,0,0.6,0.1,0.8,0.2c0.3,0.2,0.7,1.2,3.2,7.1l0,0l0.5,0l0,0l0,0c2.1-5.2,2.6-6.3,3-6.9c0.2-0.3,0.5-0.4,0.8-0.4h0.1
					l0-0.1l0-0.2l0-0.1H31L31.1,114.3z"/>
				<path fill="#FFFFFF" d="M24.1,114.4l0-0.3l0-0.1h-4l0,0.3l0,0.1h0.1c0.4,0,0.8,0.1,1,0.2c0,0,0,0,0,0c0.1,0.2,0.1,1.3,0.1,3.2
					c0,1.1,0,1.9,0,2.5c0,0.3,0,0.5,0,0.6c0,0.1,0,0.1,0,0.1c0,0,0,0,0,0c-0.2,0.1-0.6,0.2-1,0.2h-0.1l0,0.3l0,0.1h4l0-0.3l0-0.1H24
					c-0.4,0-0.8-0.1-1-0.2c0,0,0,0,0,0c-0.1-0.2-0.1-1.2-0.1-3.2c0-1.1,0-1.9,0-2.5c0-0.3,0-0.5,0-0.6c0-0.1,0-0.1,0-0.1
					c0,0,0,0,0,0C23.2,114.5,23.7,114.4,24.1,114.4L24.1,114.4z"/>
				<path fill="#FFFFFF" d="M15.6,114.3L15.6,114.3L15.6,114.3c0.4,0.1,0.8,0.2,1,0.3c0.1,0,0.3,0.4,0.3,3.2c0,0.4,0,1.1,0,1.5
					c0,0,0,0,0,0c-0.8-0.9-3.4-3.6-4.7-5.2c0-0.1-0.1-0.1-0.2-0.1c0,0,0,0-0.1,0l-2.2,0l0,0.3l0,0.1h0.1c0.4,0,0.8,0.3,1.1,0.6
					c0.3,0.4,0.3,1.2,0.3,2.5v0.4c0,2.3-0.1,3-0.4,3.1c-0.2,0.1-0.5,0.2-0.9,0.2H9.8l0,0.3l0,0.1h3.1l0-0.3l0-0.1h-0.1
					c-0.3,0-0.7-0.1-0.9-0.2c-0.1,0-0.2-0.8-0.2-3.1c0-0.7,0-1.4,0-1.9h0c1.3,1.6,4.1,4.3,5.2,5.7l0,0l0.4-0.1l0.1,0l0-0.1
					c-0.1-1-0.1-2.4-0.1-3.9c0-2.7,0.1-3.1,0.3-3.2c0.2-0.1,0.6-0.2,0.9-0.2h0.1l0-0.1l0-0.2l0-0.1h-3.2L15.6,114.3z"/>
				<path fill="#FFFFFF" d="M5.6,114.3L5.6,114.3L5.6,114.3c0.4,0.1,0.9,0.2,1,0.3c0.2,0.1,0.2,1.9,0.2,3.7c0,1.5-0.6,2.6-2,2.6
					c-1.5,0-2.3-0.7-2.3-2.4c0-1.6,0-2.6,0-3.2c0-0.6,0.1-0.8,0.1-0.8c0.2-0.1,0.6-0.2,0.9-0.2h0.1l0-0.3l0-0.1H0l0,0.3l0,0.1h0.1
					c0.4,0,0.6,0.1,0.8,0.2c0,0,0,0,0,0c0.1,0.2,0.1,1.2,0.1,4.1c0,2,1.2,3.1,3.3,3.1h0c2.3,0,3.2-1.4,3.2-3.3
					c0-2.5,0.1-3.8,0.3-3.9c0.2-0.1,0.6-0.2,0.9-0.2h0.1l0-0.1l0-0.2l0-0.1H5.6L5.6,114.3z"/>
				<path fill="#FFFFFF" d="M78,114.3L78,114.3L78,114.3c0.7,0.1,0.9,0.3,0.9,0.3c0,0.3-0.1,0.5-1.6,3c-1.4-2.2-1.8-3-1.8-3.1
					c0,0,0,0,0.1,0c0.2-0.1,0.6-0.1,0.9-0.1h0.1l0-0.3l0-0.1l-3.9,0l0,0.3l0,0.1h0.1c0.4,0,0.6,0,0.8,0.2c0.3,0.1,1,1.3,2.2,3.3
					c0.3,0.5,0.3,0.7,0.3,1.1c0,0.8,0,1.3,0,1.7c0,0.2,0,0.3,0,0.4c0,0.1,0,0.1,0,0.1c-0.2,0.1-0.6,0.2-1,0.2h-0.1l0,0.3l0,0.1h4
					l0-0.3l0-0.1h-0.1c-0.4,0-0.8-0.1-1-0.2c0,0,0,0,0,0c-0.1-0.1-0.1-0.8-0.1-2c0-0.9,0-1,0.4-1.6c0.9-1.4,1.4-2.2,1.9-2.7
					c0.3-0.3,0.6-0.3,1-0.3h0.1l0-0.1l0-0.2l0-0.1l-3,0L78,114.3z"/>
				<path fill="#FFFFFF" d="M71.6,114.3c0-0.1,0-0.2,0-0.3l0-0.1l-0.3-0.1l0,0l0,0c-0.2,0.2-0.6,0.3-3.3,0.3c-2.2,0-3-0.1-3.3-0.3
					l0,0l-0.3,0.1l0,0v0c0,0.4-0.2,2.2-0.2,2.2l0,0.1l0.3,0l0,0l0,0c0.3-1.1,1-1.6,1.9-1.6h0.6c0.1,0.8,0.1,1.7,0.1,3.2
					c0,1.1,0,1.9-0.1,2.5c0,0.3,0,0.5-0.1,0.6c0,0.1,0,0.1,0,0.1c0,0,0,0,0,0c-0.2,0.1-0.6,0.2-1,0.2H66l0,0.3l0,0.1h4l0-0.3l0-0.1
					h-0.1c-0.4,0-0.8-0.1-1-0.2c0,0,0,0,0,0c-0.1-0.2-0.1-1.2-0.1-3.2c0-1.4,0-2.4,0.1-3.2c0.3,0,0.3,0,0.7,0c0.9,0,1.5,0.5,1.7,1.7
					l0,0l0.1,0l0.2,0l0.1,0l0-0.1C71.7,116.3,71.6,115,71.6,114.3z"/>
				<path fill="#FFFFFF" d="M62.6,121.2L62.6,121.2c-0.4,0-0.9-0.1-1-0.2c0,0,0,0,0,0c-0.1-0.2-0.1-1.2-0.1-3.2c0-1.1,0-1.9,0-2.5
					c0-0.3,0-0.5,0-0.6c0-0.1,0-0.1,0-0.1c0,0,0,0,0,0c0.2-0.1,0.6-0.2,1-0.2h0.1l0-0.3l0-0.1h-4l0,0.3l0,0.1h0.1
					c0.4,0,0.8,0.1,1,0.2c0,0,0,0,0,0c0.1,0.2,0.1,1.3,0.1,3.2c0,1.1,0,1.9,0,2.5c0,0.3,0,0.5,0,0.6c0,0.1,0,0.1,0,0.1c0,0,0,0,0,0
					c-0.2,0.1-0.6,0.2-1,0.2h-0.1l0,0.3l0,0.1h4L62.6,121.2L62.6,121.2z"/>
				<path fill="#FFFFFF" d="M53.4,115.4c0-0.7,0.4-1.1,1.1-1.1c0.7,0,1.3,0.5,1.7,1.6c0,0,0.1,0.1,0.1,0.1c0.1,0,0.2-0.1,0.2-0.1
					l0,0l-0.1-1.7l0,0c-0.5-0.2-1-0.3-1.7-0.3c-1.4,0-2.6,1-2.6,2.2c0,2.4,3.6,2.1,3.5,4c0,0.8-0.5,1.3-1.2,1.3
					c-1.1,0-2-0.8-2.3-2.2l0-0.1l-0.2,0l-0.1,0l0.1,2.1l0,0c0.7,0.4,1.5,0.6,2.2,0.6c1.9,0,2.9-1.2,2.9-2.3
					C56.9,116.9,53.3,117.1,53.4,115.4z"/>
				<path fill="#FFFFFF" d="M97.8,121.2L97.8,121.2c-0.4,0-0.9-0.1-1-0.2c0,0-0.1-0.2-0.1-0.7c0-0.5-0.1-1.3-0.1-2.6
					c0-1-0.1-1.6-0.1-2.1c0-0.6,0.1-0.9,0.3-1.1c0.1-0.1,0.4-0.2,0.8-0.2h0.1l0-0.3l0-0.1h-2.8c-0.1,0-0.1,0-0.2,0.1
					c-0.7,2-1.1,3.1-2.2,5.4c-1-2.3-1.5-3.7-2.2-5.4c-0.1-0.1-0.1-0.1-0.2-0.1h-2.9l0,0.3l0,0.1h0.1c0.4,0,0.7,0.1,0.9,0.2
					c0.2,0.1,0.3,0.6,0.3,1.8c0,0.4,0,0.9,0,1.4c-0.1,2.2-0.2,3.1-0.4,3.2c-0.2,0.1-0.6,0.2-0.9,0.2h-0.1l0,0.3l0,0.1h3l0-0.3l0-0.1
					h-0.1c-0.4,0-0.7-0.1-0.8-0.2c0,0-0.1-0.3-0.1-1.1c0-0.5,0-1.2,0-2.1c0-1,0-1.7,0.1-2.3c0.8,1.8,1.6,3.7,2.6,6.2l0,0l0.3,0l0,0
					l0,0c1.4-3.2,1.8-4.5,2.6-6.3c0,0,0,0,0,0c0,0.8,0,1.1,0.1,2.4c0,0.9,0,1.6,0,2.1c0,1-0.1,1.1-0.2,1.2c-0.1,0.1-0.5,0.2-0.8,0.2
					h-0.1l0,0.3l0,0.1h4L97.8,121.2L97.8,121.2z"/>
				<path fill="#FFFFFF" d="M120.7,114.3L120.7,114.3L120.7,114.3c0.7,0.1,0.9,0.3,0.9,0.3c0,0.3-0.1,0.5-1.6,3
					c-1.4-2.2-1.8-3-1.8-3.1c0,0,0,0,0.1,0c0.2-0.1,0.6-0.1,0.9-0.1h0.1l0-0.3l0-0.1l-3.9,0l0,0.3l0,0.1h0.1c0.4,0,0.6,0,0.8,0.2
					c0.3,0.1,1,1.3,2.2,3.3c0.3,0.5,0.3,0.7,0.3,1.1c0,0.8,0,1.3,0,1.7c0,0.2,0,0.3,0,0.4c0,0.1,0,0.1,0,0.1c-0.2,0.1-0.6,0.2-1,0.2
					h-0.1l0,0.3l0,0.1h4l0-0.3l0-0.1h-0.1c-0.4,0-0.8-0.1-1-0.2c0,0,0,0,0,0c-0.1-0.1-0.1-0.8-0.1-2c0-0.9,0-1,0.4-1.6
					c0.9-1.4,1.4-2.2,1.9-2.7c0.3-0.3,0.5-0.3,1-0.3h0.1l0-0.1l0-0.2l0-0.1l-3,0L120.7,114.3z"/>
				<path fill="#FFFFFF" d="M130.9,119.1L130.9,119.1c-0.2,0.7-0.4,1.3-0.7,1.5c-0.2,0.2-0.6,0.4-1.2,0.4c-0.8,0-1.2-0.1-1.4-0.2
					c0,0,0,0,0-0.2c-0.1-0.3-0.1-1.2-0.1-2.9c0-1.1,0-1.9,0-2.5c0-0.3,0-0.5,0.1-0.6c0-0.1,0-0.1,0-0.1c0,0,0,0,0,0
					c0.2-0.1,0.5-0.2,0.9-0.2h0.1l0-0.3l0-0.1h-3.8l0,0.3l0,0.1h0.1c0.3,0,0.7,0.1,0.9,0.2c0,0,0,0,0,0c0.1,0.2,0.1,1.2,0.1,3.2
					c0,1.1,0,1.9,0,2.5c0,0.3,0,0.5,0,0.6c0,0.1,0,0.1,0,0.1c0,0,0,0,0,0c-0.2,0.1-0.6,0.2-0.9,0.2h-0.1l0,0.3l0,0.1h6.4l0-0.1
					l0.3-2.3L130.9,119.1L130.9,119.1z"/>
				<path fill="#FFFFFF" d="M146.6,114.3L146.6,114.3L146.6,114.3c0.4,0.1,0.8,0.2,1,0.3c0.1,0,0.3,0.4,0.3,3.2c0,0.4,0,1.1,0,1.5
					c0,0,0,0,0,0c-0.8-0.9-3.4-3.6-4.7-5.2c0-0.1-0.1-0.1-0.2-0.1c0,0,0,0-0.1,0l-2.2,0l0,0.3l0,0.1h0.1c0.4,0,0.8,0.3,1.1,0.6
					c0.3,0.4,0.3,1.2,0.3,2.5v0.4c0,2.3-0.1,3-0.4,3.1c-0.2,0.1-0.5,0.2-0.9,0.2h-0.1l0,0.3l0,0.1h3.1l0-0.3l0-0.1h-0.1
					c-0.3,0-0.7-0.1-0.9-0.2c-0.1,0-0.2-0.8-0.2-3.1c0-0.7,0-1.4,0-1.9c1.3,1.6,4.1,4.3,5.2,5.7l0,0l0.4-0.1l0.1,0l0-0.1
					c-0.1-1-0.1-2.4-0.1-3.9c0-2.7,0.1-3.1,0.3-3.2c0.2-0.1,0.6-0.2,0.9-0.2h0.1l0-0.1l0-0.2l0-0.1h-3.2L146.6,114.3z"/>
				<path fill="#FFFFFF" d="M38.5,78.5c-8.1,0-14.2,6.4-14.2,13.4c0,6.8,4.6,14,14.5,14c8.1,0,14.2-6.4,14.2-13.4
					C53,85.6,48.4,78.5,38.5,78.5z M39.3,104.7c-5.9,0-10-4.9-10-12.6c0-7.7,3.1-12.3,8.8-12.3c5.9,0,10.1,4.9,10.1,12.6
					C48.1,100,45,104.7,39.3,104.7z"/>
				<path fill="#FFFFFF" d="M92.8,78.5c-8.1,0-14.2,6.4-14.2,13.4c0,6.8,4.6,14,14.5,14c8.1,0,14.2-6.4,14.2-13.4
					C107.2,85.6,102.7,78.5,92.8,78.5z M93.5,104.7c-5.9,0-10-4.9-10-12.6c0-7.7,3.1-12.3,8.8-12.3c5.9,0,10.1,4.9,10.1,12.6
					C102.4,100,99.3,104.7,93.5,104.7z"/>
				<path fill="#FFFFFF" d="M51.1,121.3c-0.2,0-0.3,0-0.5-0.1c-0.8-0.1-1.1-1.1-1.3-1.6c-0.5-1.1-1.1-1.4-1.4-1.6
					c1-0.3,1.7-1.2,1.7-2c0-1.1-1-2.1-2.8-2.1h-3.9l0,0.3l0,0.1H43c0.4,0,0.7,0.1,0.9,0.2c0,0,0,0,0,0c0.1,0.2,0.1,1.2,0.1,3.2
					c0,1.1,0,2,0,2.5c0,0.3,0,0.5,0,0.6c0,0.1,0,0.1,0,0.1c0,0,0,0,0,0c-0.2,0.1-0.5,0.2-0.9,0.2h-0.1l0,0.3l0,0.1h3.8l0-0.3l0-0.1
					h-0.1c-0.3,0-0.7-0.1-0.9-0.2c0,0,0,0,0,0c-0.1-0.2-0.1-1-0.1-2.5c0-0.1,0-0.1,0.1-0.1c0.1,0,0.1,0,0.3,0c0.5,0,0.6,0,1,0.5
					c1.2,1.7,0.7,2.7,2.7,2.8c0.2,0,0.3,0,0.4,0c0.3,0,0.6,0,0.9-0.1l0,0L51.1,121.3L51.1,121.3L51.1,121.3z M46.3,117.8
					c-0.1,0-0.5,0-0.5,0c-0.1,0-0.1,0-0.1-0.1c0-1.6,0.1-3.1,0.1-3.1c0-0.1,0.3-0.1,0.7-0.1h0.1c0.8,0,1.4,0.6,1.4,1.7
					C47.9,117.3,47.4,117.8,46.3,117.8z"/>
				<path fill="#FFFFFF" d="M155.3,114h-4.2l0,0.3l0,0.1h0.1c0.4,0,0.7,0.1,0.9,0.2c0,0,0,0,0,0c0.1,0.2,0.1,1.2,0.1,3.2
					c0,1.1,0,2,0,2.5c0,0.3,0,0.5,0,0.6c0,0.1,0,0.1,0,0.1c0,0,0,0,0,0c-0.2,0.1-0.5,0.2-0.9,0.2h-0.1l0,0.3l0,0.1h4.3
					c2.3,0,4.2-1.6,4.2-3.8C159.6,115.6,158,114,155.3,114z M155.5,121.1c-1,0-1.3-0.1-1.5-0.3c-0.2-0.1-0.2-1.5-0.2-3.1
					c0-2.3,0.1-3.1,0.1-3.1c0.2-0.1,0.5-0.2,1-0.2c1.7,0,2.9,1,2.9,3.3C157.8,120.1,156.8,121.1,155.5,121.1z"/>
				<path fill="#FFFFFF" d="M137.1,121.1c-0.2,0.1-0.6,0.1-1,0.1h-0.1l0,0.3l0,0.1h4l0-0.3l0-0.1H140c-0.3,0-0.6-0.1-0.8-0.2
					c-0.3-0.2-0.6-0.9-3-7.1l0,0l-0.5,0h0l0,0c-2.1,5.3-2.6,6.3-3,6.9c-0.2,0.3-0.4,0.4-0.8,0.5h-0.1l0,0.3l0,0.1h2.5l0-0.3l0-0.1
					h-0.1c-0.7,0-0.7-0.2-0.7-0.4c0-0.2,0.1-0.5,0.6-1.7c0.3,0,0.8,0,1.5,0h1c0,0.1,0.1,0.2,0.1,0.3c0.3,1,0.5,1.4,0.5,1.6
					C137.2,121,137.2,121,137.1,121.1z M135.6,118.6c-0.6,0-1,0-1.3,0c0.3-0.7,0.6-1.6,1.1-2.7c0.3,0.7,0.7,1.8,1.1,2.7H135.6z"/>
				<path fill="#FFFFFF" d="M115.8,121.3c-0.2,0-0.3,0-0.5-0.1c-0.8-0.1-1.1-1.1-1.3-1.6c-0.5-1.1-1.1-1.4-1.4-1.6
					c1-0.3,1.7-1.2,1.7-2c0-1.1-1-2.1-2.8-2.1h-3.9l0,0.3l0,0.1h0.1c0.4,0,0.7,0.1,0.9,0.2c0,0,0,0,0,0c0.1,0.2,0.1,1.2,0.1,3.2
					c0,1.1,0,2,0,2.5c0,0.3,0,0.5,0,0.6c0,0.1,0,0.1,0,0.1c0,0,0,0,0,0c-0.2,0.1-0.5,0.2-0.9,0.2h-0.1l0,0.3l0,0.1h3.8l0-0.3l0-0.1
					h-0.1c-0.3,0-0.7-0.1-0.9-0.2c0,0,0,0,0,0c-0.1-0.2-0.1-1-0.1-2.5c0-0.1,0-0.1,0.1-0.1c0.1,0,0.1,0,0.3,0c0.5,0,0.7,0,1,0.5
					c1.2,1.7,0.7,2.7,2.7,2.8c0.2,0,0.3,0,0.4,0c0.3,0,0.6,0,0.9-0.1l0,0L115.8,121.3L115.8,121.3L115.8,121.3z M111,117.8
					c-0.1,0-0.5,0-0.5,0c-0.1,0-0.1,0-0.1-0.1c0-1.6,0.1-3.1,0.1-3.1c0.1-0.1,0.3-0.1,0.7-0.1c0,0,0.1,0,0.1,0
					c0.8,0,1.4,0.6,1.4,1.7C112.7,117.3,112.2,117.8,111,117.8z"/>
				<path fill="#FFFFFF" d="M103.9,121.1c-0.2,0.1-0.6,0.1-1,0.1h-0.1l0,0.3l0,0.1h4l0-0.3l0-0.1h-0.1c-0.3,0-0.6-0.1-0.8-0.2
					c-0.3-0.2-0.6-0.9-3-7.1l0,0l-0.5,0h0l0,0c-2.1,5.3-2.6,6.3-3,6.9c-0.2,0.3-0.4,0.4-0.8,0.5h-0.1l0,0.3l0,0.1h2.5l0-0.3l0-0.1
					h-0.1c-0.7,0-0.7-0.2-0.7-0.4c0-0.2,0.1-0.5,0.6-1.7c0.3,0,0.8,0,1.5,0h1c0,0.1,0.1,0.2,0.1,0.3c0.3,1,0.5,1.4,0.4,1.6
					C103.9,121,103.9,121,103.9,121.1z M102.4,118.6c-0.6,0-1,0-1.3,0c0.3-0.7,0.6-1.6,1.1-2.7c0.3,0.7,0.7,1.8,1.1,2.7H102.4z"/>
			</g>
		</g>
		<path fill="#FFFFFF" d="M66.3,46.6l-0.5-0.2l-0.7,0.5l-1.5,0.4l-0.5-0.4l0,0.3l-0.3-0.1l0,0.7l-0.3-0.1l0,0.1l0.9,0.2l1.3-0.8
			l0.2,0.3l0.3-0.3l0.2,0.4l0.1,0l0.1,0l0.1-0.2l-0.1-0.3L65.5,47l0-0.1l0.3,0.1l0.1,0.3l0.1-0.1L66,47l-0.2-0.2l0-0.1l0.3,0.1
			l0.1,0.3l0.1-0.1L66.3,46.6z M66.3,47.3l0.1,0.2l0.1-0.1l0-0.3L66.3,47.3L66.3,47.3z M65.7,47.8L65.7,47.8L65.7,47.8l0,0.2
			l0.1-0.1L65.7,47.8L65.7,47.8z M68.7,46.6l0.4,0.1h1.1l0.2-0.2L70,46.3l0.7-0.6c-0.1-0.2-0.2-0.5-0.3-0.7c0,0-0.1,0-0.1,0l0,0
			h-0.2l0,0l-0.2-0.2l-0.2,0l0,0l-0.5-0.2l0,0l-0.3-0.3l0.2-0.1l0.3-0.2c0,0,0,0,0.1-0.1c-0.7-0.5-1.5-0.8-2.4-0.8
			c-0.9,0-1.8,0.3-2.5,0.8c0,0,0,0,0.1,0l0.5,0.4l-0.1,0.1l-0.2,0.2l0,0L64,44.8l0,0l-0.2,0l-0.3,0.3h-0.2l0,0c0,0,0,0-0.1,0
			c-0.1,0.2-0.2,0.5-0.3,0.7l0.6,0.6l-0.2,0.1l-0.1,0.1l0.2,0.2h1.1l0.4-0.1l0.8-0.5l0.8,0.3l0,0.1l0,0.2H67l0-0.3l0.8-0.3
			L68.7,46.6z M66.1,47.5L66.1,47.5l0,0.2l0.1-0.1L66.1,47.5L66.1,47.5z M62.2,45.1l0.3,0.3c0.1-0.2,0.2-0.4,0.3-0.6
			c-0.2-0.1-0.4-0.2-0.5-0.2c0,0,0,0,0,0L62.2,45.1z M68.9,49.8l0.1,0.2l0.1,0l0-0.2l-0.1,0L68.9,49.8z M69.3,50l0.1,0.3l0.1,0
			l0.1-0.2l-0.1,0L69.3,50z M70.2,48.1l0.9-0.2l0-0.1l-0.3,0.1l0-0.7l-0.3,0.1l0-0.3L70,47.3l-1.5-0.4l-0.7-0.5l-0.5,0.2l0,0.4
			l0.1,0.1l0.1-0.3l0.3-0.1l0,0.1L67.6,47l-0.1,0.3l0.1,0.1l0.1-0.3L68,47l0,0.1l-0.2,0.2l-0.1,0.3l0.1,0.2l0.1,0l0.1,0l0.2-0.4
			l0.3,0.3l0.2-0.3L70.2,48.1z M67.9,47.8L67.9,47.8L67.8,48l0.1,0.1L67.9,47.8L67.9,47.8L67.9,47.8z M67.2,47.1l0,0.3l0.1,0.1
			l0.1-0.2L67.2,47.1L67.2,47.1z M67.5,47.4l0,0.2l0.1,0.1l0.1-0.2L67.5,47.4L67.5,47.4z M62.5,52.6l0.8,0l0.2-0.5
			c-0.7-0.7-1-1.7-1.2-2.5l-1-0.2l-0.1,0.1l1.1,1l-0.1,0.1l-0.1,0.1l0.3,0.2l-0.4,1.2L62.5,52.6z M62.4,41.9l0.1,0.2l0.2,0.1
			l0.1-0.2l-0.5-0.8l-0.1,0.1l0.1,0.2l-0.2,0.4L62.4,41.9z M58.2,48.6C58,48.2,58.5,45.7,58,45c-0.3-0.4-1.1-1-1.1-1l-0.1,0.1
			c0,0,0.4,0.5,0.6,1.6l-0.2,0l0.2,1.4L57.3,47l0.2,1.4l0.8,0.9l0.1-0.3L58.2,48.6z M71.2,42.1l0.1-0.2l0.2,0l-0.2-0.4l0.1-0.2
			l-0.1-0.1L70.8,42l0.1,0.2L71.2,42.1z M62.4,52.9l-0.8-0.6l0.4-1.2l-0.3-0.3l0.2-0.3l-0.9-0.9l-0.5,0.4l0.3,1.5l-0.2,0l0.4,0.6
			l-0.2,0.4l0.9,0.6l0,0.3l0.6,0l0,0.4l0.1,0.1l0.1,0l0.2-0.1l0.1-0.3l0-0.3l0.1,0l0.2,0.3l-0.1,0.3l0.2,0l0.1-0.3l0-0.3l0.1,0
			l0.2,0.3l-0.1,0.3l0.2,0l0.1-0.3l-0.3-0.4L62.4,52.9z M76.1,48.4l0.2-1.4l-0.2,0.1l0.2-1.4l-0.2,0c0.2-1.1,0.6-1.6,0.6-1.6
			L76.8,44c0,0-0.8,0.6-1.1,1c-0.5,0.7,0,3.2-0.2,3.6l-0.3,0.5l0.1,0.3L76.1,48.4z M63.5,49.1l-1.6-0.7l-0.2-1.3L62,47l0.1,0.1
			L62,47.2l0.1,0.7c0.1,0,0.1,0,0.1,0l0.2-0.4l0.2,0.1l0-0.7l0.2,0.1l0-0.5l0.2-0.1l-1.2-1l0-0.6l-0.5,0.2l0-0.5l-0.2-0.1l0-0.1
			l0.3,0.2l0,0.3l0.5-0.3l0,0c0,0,0.8,0.2,1.3,0.5c0,0,0.1-0.1,0.1-0.1c0,0,0,0,0.1-0.1l-0.4-0.3l-0.7-0.2l-0.2,0l-0.1-0.1l0.2-0.1
			l0.8,0.3l0.5,0.3l0.1,0c0,0,0.4-0.2,0.4-0.2c0,0,0-0.3,0-0.3s-0.3-0.3-0.3-0.3l-0.5-0.3v0l-0.3-0.2l0.1-0.2l-0.6-0.7l-0.4-0.2
			l0-0.2l-0.1,0l-0.1,0.1l0,0.1L62,42.2L61.8,42l-0.6-0.7l0,0.1l0,0.2l-0.1,0.3l0,0.4l0.2,0.4l-0.1,0.1c0,0-0.1-0.1-0.2-0.2
			l-0.4,0.2l-0.6,0.5l0.1,0.1L59.7,44l-0.2,0.4l0.2,0.1l-0.4,1.1l0.3,0l-0.2,0.7l0,0.5l0.2,0l0.1,1l-0.3,0.6l-0.9,0.7l-0.2,0.6
			l0.1,0.5l-0.2,0l0.3,0.7l-0.2,0l0.5,0.9l-1.1,0.7l0.6,0.9l0,0.3l0.5-0.1l0,0.4l0.1,0.1l0.1,0l0.2-0.1l0.1-0.3l0-0.3l0.1,0l0.2,0.3
			l-0.1,0.3l0.2,0l0.1-0.3l0-0.3l0.1,0l0.2,0.3L59.9,54l0.2,0l0.1-0.3l-0.3-0.4l-1,0l-0.2-0.5l1.5-0.6l-0.3-0.7l0.6,0l-0.2-1.4
			l0.8-0.8l-0.3-0.1l-0.3-0.8l-0.2-0.1l0-0.1l0.4,0l0.4,0.8l2.2,0.5l0.1,0.3l0.3-0.1l0.1,0.4l0.1,0l0.1,0L64,50l0-0.3l-0.1-0.3
			l0.1,0l0.2,0.2l0,0.3l0.2-0.1l0-0.3l-0.1-0.3l0.1,0l0.2,0.2l0,0.3l0.1-0.1l0.1-0.3l-0.4-0.4L63.5,49.1z M62.6,42.9l0.6,0.6l0,0.1
			L63,43.6l-0.2,0L62,43.3L62.6,42.9z M61.3,42.2l0-0.4l0-0.1l0.3,0.7l-0.1,0.1L61.3,42.2z M62.5,43.2l0.1,0.3c0,0,0.2,0,0.3-0.1
			L62.5,43.2z M64.6,49.9l0,0.2l0.1,0l0.1-0.2L64.6,49.9L64.6,49.9z M69.8,50.3l-0.1-0.1l0,0.2l0.1,0V50.3L69.8,50.3L69.8,50.3z
			 M64.2,50.1l0.1,0.2l0.1,0l0.1-0.3L64.2,50.1L64.2,50.1z M63.9,50.3L63.9,50.3l0,0.2l0.1,0l0-0.2L63.9,50.3L63.9,50.3z
			 M100.2,40.8c-1.3,0-2.4-1-2.5-2.4h-1l8.2,8.2v-3.2l-3.2-3.2C101.3,40.6,100.8,40.8,100.2,40.8z M90.3,38.4L103.9,52
			c0.3-0.7,0.6-1.6,0.8-2.5L93.5,38.4H90.3z M104.9,40.3v-2.5c-0.4,0.5-1.1,0.8-1.7,0.8L104.9,40.3z M72.7,49.6l-0.9,0.9l0.2,0.3
			l-0.3,0.3l0.4,1.2l-0.8,0.6l-0.9,0L70,53.3l0.1,0.3l0.2,0l-0.1-0.3l0.2-0.3l0.1,0l0,0.3l0.1,0.3l0.2,0l-0.1-0.3l0.2-0.3l0.1,0
			l0,0.3l0.1,0.3l0.2,0.1l0.1,0l0.1-0.1l0-0.4l0.6,0l0-0.3l0.9-0.6l-0.2-0.4l0.4-0.6l-0.2,0l0.3-1.5L72.7,49.6z M82.5,49.8l9.7,9.7
			c0.8-0.2,1.7-0.5,2.5-0.7L82.5,46.6V49.8z M83.9,38.4L101,55.6c0.6-0.5,1.1-1,1.6-1.6L87.1,38.4H83.9z M82.6,12.8
			c1.3,0.1,2.3,1.2,2.3,2.5c0,1.3-1,2.4-2.4,2.6v15.6h15.2c0.1-1.3,1.2-2.3,2.5-2.3c1.3,0,2.4,1,2.5,2.3c0.1,0,0.2,0,0.3,0
			c0.7,0,1.4,0.3,1.9,0.8c0-11.1,0-23.6,0-23.6H81.8c0.5,0.5,0.8,1.1,0.8,1.9C82.6,12.5,82.6,12.7,82.6,12.8z M85.6,27
			c0.4,0.1,0.7,0.3,1.1,0.3c0.2,0,0.2,0.2,0.3,0.3c0.1,0,0.1,0.1,0.2,0c0.2,0-0.1,0,0.1,0c0,0,0.1-0.1,0.1-0.1c0.2,0,0.5-0.2,0.6,0
			c0,0.1,0.1,0.2,0.2,0.3c0.2,0.1,0.3-0.2,0.4-0.3c-0.1-0.1-0.1-0.1-0.2-0.2c-0.2-0.3-0.2-0.2-0.5-0.2c-0.1,0-0.1-0.1-0.2-0.1
			c-0.2,0-0.1,0-0.3,0c-0.3,0-0.6,0-1-0.1c-0.1,0-0.2-0.1-0.1-0.2c0,0,0.1,0,0.1,0c0-0.2-0.3-0.1-0.3-0.3c0.4,0.1,0.8,0.3,1.2,0.2
			c0,0,0.1,0,0.1-0.1c0-0.1,0-0.2,0.1-0.2c0.3-0.1,0.2,0.1,0.5,0.1c0.1,0,0.9,0,1-0.1c0.7-0.4-0.2-0.3,0.1-0.5c0,0-0.9,0-0.9,0
			c-0.3-0.2-0.1-0.3-0.4-0.3l-0.5,0.1c0,0,0,0,0,0c0,0,0,0,0,0c0.1,0-0.1,0,0,0c-0.1,0-0.1,0-0.1-0.1c-0.1-0.1-0.2,0-0.3,0
			c-0.1-0.1-0.2-0.2-0.3-0.3c-0.1-0.1-0.2-0.1-0.3-0.1c-0.1,0-0.2-0.1-0.3-0.2c0,0,0,0,0-0.1c0.1-0.1,0.2,0.1,0.3,0
			c0.1-0.1,0.2-0.1,0.3-0.1c0.1,0,0.3,0.1,0.4,0.1c0.1,0,0.1,0,0.1-0.1c0,0,0-0.1,0-0.1c0.1-0.1,0.2-0.1,0.3-0.1
			c0.1,0,0,0.3,0.2,0.4l0.2,0l-0.1-0.3c-0.1-0.3,0.4,0.2,0.4,0.2c0,0.1,0.1,0.1,0.3,0.2c0.3,0.1,0.4,0.1,0.4,0.2
			c0.2-0.2-0.3-0.3-0.1-0.5c0.1-0.1,0.2,0,0.3,0.1c0.1,0.1,0.2,0.2,0.4,0.2c0.3,0.1,0.3,0,0.6,0c0.1,0,0.1-0.1,0-0.1
			c-0.1-0.2-0.1,0-0.3,0c-0.1,0-0.2-0.2-0.1-0.4c0,0-0.1-0.1-0.1-0.1c-0.2,0-0.4,0.1-0.6,0.1c-0.1,0-0.2-0.1-0.3-0.1
			c-0.2,0-0.6,0-0.7-0.3c-0.1-0.1,0.3,0,0.3-0.1c0.2,0,0.3,0,0.4,0l0.2,0v-0.1c-0.1-0.2,0.2,0,0.2,0c0.1,0,0.3,0.1,0.3,0.1
			c0.1,0,0-0.1,0.1-0.2c0.2,0,0.2,0,0.4,0c0.1,0,0-0.2,0-0.3c0.1-0.2-0.1-0.2-0.3-0.2c0,0,0-0.1-0.1-0.1c-0.1,0-0.1,0.2-0.1,0.3
			c-0.7,0.2-0.2-0.3-0.2-0.4c0-0.1-0.2,0.1-0.3,0.2c-0.1,0-0.1,0.2-0.2,0.2l-0.1,0l0,0c-0.1,0.1-0.3,0.1-0.4,0.2
			c-0.2,0.1-0.5,0-0.7-0.1c-0.2-0.1-0.4-0.1-0.6,0c0,0,0,0,0-0.1c0.3-0.2,0.7,0,1-0.2c-0.1,0-0.1-0.1-0.2-0.1
			c0.1-0.1,0.2-0.1,0.2-0.1c0.1-0.1,0.4-0.1,0.4-0.2l0,0c-0.3,0-0.6-0.1-0.9,0c0.1-0.1,0.1-0.2,0-0.2c-0.1,0-0.2,0-0.2-0.1
			c0.2-0.1,0.5,0,0.7,0c0.2-0.1,0.5-0.3,0.7-0.2l0,0c0.1,0.1,0.2,0.1,0.3,0.2l0.1-0.1c0.1,0,0.1-0.1,0.1-0.2c0-0.2-0.2-0.1-0.3-0.1
			c-0.1,0-0.2-0.1-0.2-0.2c-0.1-0.1,0-0.2,0.1-0.2c0.3,0,0.6,0.2,0.9,0.2c0.1,0,0.2,0,0.3-0.1c0,0,0-0.1,0-0.1c-0.2,0-0.3,0-0.5-0.1
			c-0.1,0-0.2-0.3-0.3-0.3c-0.3-0.2-0.5,0-0.7-0.3c0,0,0-0.1,0.1-0.1c0.1-0.1,0.3,0,0.4,0c0.1,0,0.3-0.1,0.4-0.1
			c0.2,0,0.4,0,0.5,0.1c0.1,0,0.1,0.1,0.2,0.1c0,0,0.1,0.1,0.1,0.1c0.3-0.1,0.1,0,0.2,0c0.1,0.1,0.4-0.1,0.4-0.2
			c0-0.1-0.1-0.2-0.2-0.2c-0.3-0.1-0.3,0.1-0.5,0l0,0c-0.3,0-0.3,0-0.5-0.1c-0.1,0-0.2-0.1-0.3-0.2c0,0,0-0.1,0-0.1
			c0.1,0,0.2,0.1,0.3,0.1c0.1,0,0.2,0,0.1-0.1c-0.2-0.3-0.6-0.1-1-0.2c0,0,0,0,0,0c0.1-0.1,0.2-0.1,0.2-0.2c0.3-0.1,0.6-0.1,0.8,0
			l0.2,0c0.2,0,0.5,0,0.7-0.1c0,0,0.1-0.1,0.1-0.1c-0.1-0.1-0.2-0.3-0.3-0.3c-0.1,0-0.3,0-0.5,0c-0.2-0.1-0.4-0.1-0.5-0.3
			c0.2,0,0.3,0.1,0.5,0c0.2-0.1-0.1-0.2-0.1-0.3c0.2,0,0.4,0.1,0.6,0.2c0.3,0.1,0.5,0.2,0.7,0.3c0.1,0,0.2,0,0.3,0.1
			c0,0,0.1,0,0.2-0.1c0.1-0.1,0.2-0.2,0.2-0.3c0-0.1-0.3,0-0.3,0c-0.3-0.2-0.6-0.2-1.1-0.2c-0.4-0.2,0.3-0.2,0.3-0.2
			c0.1,0,0.5-0.2,0.4-0.2c-0.1-0.2-0.3-0.1-0.4-0.1c-0.3-0.1-0.7,0.1-1,0c0.1-0.1,0.3-0.1,0.4-0.2c0-0.1-0.2-0.1-0.2-0.2
			c0.3,0,0.6,0,1,0c0,0,0.1,0,0.1-0.1c-0.2-0.2-0.4-0.2-0.6-0.4c0,0,0-0.1,0-0.1c0.1-0.1,0.2-0.1,0.3-0.1c0.3,0.2,0.6,0.3,0.9,0.4
			c0.1,0,0.7-0.1,0.7-0.2c0-0.1-0.1,0-0.1-0.1c0-0.1-0.3-0.1-0.3-0.2c-0.1-0.1-0.4,0.2-0.7-0.1c0,0,0.3-0.3,0.2-0.3
			c-0.1,0-0.3,0.1-0.4,0.1c0,0-0.2-0.1-0.1-0.2c0.1-0.1,0.5,0,0.5-0.1c0-0.1-0.1-0.1-0.1-0.1c0.2,0,0.4,0.2,0.6,0.1
			c0.1,0,0.2-0.1,0.2-0.1c0.1-0.1,0-0.3,0-0.3c-0.1,0.1-0.3,0.1-0.4,0.2c-0.1,0-0.1-0.1,0.1-0.2c0,0,0.2-0.2,0.2-0.3
			c0-0.1-0.2-0.1-0.2-0.2c0.2-0.2-0.1-0.2-0.3-0.6c0.1,0,0.2,0,0.3,0.1c0.1,0.1,0.2,0.1,0.3,0.2c0.1,0.1,0.2,0.2,0.4,0.3
			c0,0,0.3,0.1,0.3,0c0-0.1,0-0.2-0.2-0.6c0-0.1-0.2-0.1-0.3-0.1c0-0.1,0.1-0.1,0-0.2c-0.1-0.1-0.1-0.1-0.2-0.2c0,0-0.1-0.1-0.1-0.1
			c0,0,0.1,0,0.1,0c0.1,0.1,0.2,0.2,0.3,0.3c0.1,0,0.3,0,0.3,0.1c0,0,0.1,0.1,0.1,0.1c0.2-0.1,0-0.2-0.2-0.4
			c-0.2-0.2-0.1-0.2-0.1-0.2c0.1-0.1,0.3,0.2,0.4,0.2c0.1,0,0.1-0.1,0.1-0.2c0-0.1-0.2-0.2-0.3-0.3c-0.1-0.1-0.2-0.2-0.1-0.3
			c0,0,0.2,0.2,0.3,0.2c0.1,0.1,0.3,0.1,0.3,0c0.1-0.2-0.2-0.5-0.1-0.5c0-0.2,0.4,0.4,0.4,0.1c0-0.1,0.1-0.3,0-0.5
			c-0.1-0.1-0.1-0.3,0-0.4c0-0.1,0-0.1,0.1-0.1c0.1,0,0,0,0.1,0.3c0.1,0.2,0,0.3,0.1,0.4c0,0,0.3-0.3,0.3,0.1c0,0-0.2,0.2-0.2,0.2
			c0,0.1,0,0.1,0.1,0.1c0.1,0,0.2-0.1,0.4-0.1c0.2-0.1,0.2,0.1,0.1,0.1c-0.1,0.1-0.3,0.2-0.3,0.3c0,0.1,0.1,0.2,0.2,0.2
			c0.2,0,0.2-0.1,0.3-0.2c0.2-0.1,0.2-0.3,0.5-0.3c-0.1,0.1-0.1,0.2-0.1,0.3c-0.1,0.2,0.2,0,0.3,0.1c0,0.1-0.2,0.1-0.2,0.1
			c-0.1,0-0.1,0-0.3,0.2c-0.1,0.1,0.3,0.1,0.2,0.1c0,0-0.3,0.1-0.3,0.1c-0.1,0.1-0.2,0.1-0.2,0.2c0,0.1,0.2,0.2,0.3,0.1
			c0.1,0,0.2,0.1,0.3,0.1c0.1,0,0.2-0.1,0.2-0.1c0.3-0.3,0.3-0.2,0.2,0c0,0.2-0.1,0.3,0.1,0.2c0.5-0.2,0.2,0.1,0.5-0.1
			c0.3-0.1,0.2-0.1,0.2-0.1c0,0.1-0.2,0.3-0.4,0.3c0,0-0.3,0-0.3,0.1c-0.1,0-0.3,0.2-0.3,0.2c-0.2,0.2,0,0.5,0,0.5
			c0.1,0.1,0.3-0.3,0.4-0.3c0.1,0,0.3,0,0.1,0.2c-0.3,0.2-0.2,0.3-0.2,0.3c0.2,0,0.4-0.1,0.5-0.2c0,0,0.3-0.5,0.3-0.5
			c0.3-0.1,0,0.3,0,0.3c0.2,0,0.5-0.2,0.7-0.2c0.1,0.2-0.4,0.2-0.5,0.5c0,0.1-0.2,0.1-0.1,0.2c0.2,0.1,0.4-0.1,0.8-0.1
			c0,0-0.4,0.3-0.4,0.3c-0.3,0.1-0.7,0.5-1,0.6c0,0,0,0,0,0.1c0,0.2,0.3,0.2,0.5,0.1c0.1,0,0.1-0.1,0.1-0.1c0.4-0.4,0.4-0.2,0.5-0.1
			c0.1,0.1,0.9-0.5,0.5-0.1c0,0-0.3,0.2-0.4,0.2c-0.1,0-0.2,0.1-0.3,0.1c-0.1,0.1-0.3,0.1-0.2,0.1c0,0-0.2,0.1-0.4,0.2
			c-0.2,0.1-0.3,0.1-0.3,0.2c0,0-0.1,0.4,0.1,0.4l0.3,0c0,0,0.3-0.1,0.3-0.1l0.1,0c0,0,0.1-0.1,0.4-0.3c0.4-0.2,0.2,0,0.7-0.1l0.2,0
			c0.2,0,0.4-0.1,0.4-0.1c0,0.1-0.1,0.2-0.2,0.3c-0.1,0.1-0.3,0.1-0.4,0.1c-0.1,0-0.2,0-0.2,0.1c0,0-0.2,0.1-0.2,0.2
			c0,0.1,0.3,0.2,0.3,0.1c0.5,0,0.6,0.1,0.2,0.2c-0.1,0-0.2,0-0.3,0c-0.4-0.1-0.5,0-0.3,0.1c0.2,0.1,0.2,0.1,0.2,0.2
			c-0.2,0.2-0.5-0.1-0.7,0c-0.1,0,0,0.1-0.2,0.1l-0.2,0l0,0c0,0-0.1,0-0.1,0c-0.1,0-0.1,0.2-0.1,0.2c0.1,0.2,0.1,0,0.4,0.1
			c0.1,0.1,0,0.1,0.1,0.1c0.1,0,0.7,0.1,0.8,0c0.1,0,0.3,0,0.4,0c0.2,0,0.1,0,0.3,0c0.1,0.2,0,0,0,0.1c0,0.2,0.3,0.1,0.5,0.3
			c-0.2,0.2-0.5,0-0.7-0.1c-0.2-0.1-0.4-0.1-0.5,0.1c0,0,0.1,0.1,0.1,0.1c0.1,0,0.3-0.2,0.2,0c0,0-0.1,0.1-0.2,0.1
			c-0.3,0.1-0.5,0.1-0.8,0c-0.1,0-0.2,0.1-0.2,0.2c0.1,0.1,0.1,0.1,0.2,0.3l0,0c0.1,0.1,0,0.3,0.1,0.3c0.1,0,0-0.1,0.1-0.2
			c0.1-0.1,0.1,0,0.2,0c0.1-0.1,0.4-0.2,0.5-0.3c0.3-0.1,0.2,0.1,0.1,0.2c0,0-0.4,0.2-0.4,0.2c-0.2,0,0,0.2,0.2,0.2
			c0.2-0.1,0.7-0.4,0.9-0.4c0.2,0,0.3-0.4,0.5-0.2c0.1,0.1-0.2,0.3-0.3,0.4c-0.2,0.1-0.2,0.1-0.4,0.2c-0.2,0.1,0.1,0.2-0.1,0.3
			c-0.1,0.1-0.3,0.2-0.4,0.2c-0.1,0,0,0.2,0,0.2c0.1,0,0.1,0.2,0.3,0.1h0c0.3-0.2,0.5-0.3,0.6-0.2c0.2,0-0.5,0.3-0.3,0.3
			c0.5,0.2,1.1-0.6,1-0.1c0,0-0.2,0-0.4,0.2l0,0.1c0.6-0.4,0.2-0.1,0.6-0.1c-0.1,0.2-0.4,0.1-0.5,0.3c-0.1,0.1,0.5,0.1,0.4,0.2
			c-0.2,0.1-0.4,0-0.6,0l-0.2,0c0,0-0.1,0-0.2,0c-0.2,0-0.4,0-0.1-0.2l-0.4,0c-0.2,0.1,0,0.3-0.1,0.3c-0.1,0-0.5-0.1-0.5,0
			c0,0.1,1.3,0.2,1.2,0.3c-0.1,0.1-0.9,0-1,0c-0.1,0,0.2,0.2-0.4,0.1l-0.2-0.1c-0.2,0-0.3,0.2,0.2,0.3c0,0,0.1,0.1,0.1,0.1
			c0.2,0,0.3-0.1,0.5,0c0.2,0.1,0.5,0,0.7,0c0.2,0,0.5,0,0.8,0c0.2,0.1,0.7-0.4,0.7-0.2c0,0.1-0.2,0.3-0.6,0.4
			c-0.3,0.1-0.7,0.1-0.7,0.2c0,0,0,0,0,0.1c0,0-0.1,0-0.1,0c-0.1,0-0.3,0-0.5,0c-0.3,0.1-0.6,0.2-0.8,0.2c-0.5,0-0.5,0.2-0.4,0.2
			c0.1,0.2,0.3,0,0.5,0c0.3,0.1-0.1,0.3,0.2,0.3c0,0,0.1-0.1,0.1-0.1c0-0.1,0-0.3,0.1-0.3c0.4-0.1,0.4,0.1,0.7,0
			c0.4-0.1,0.8-0.3,1.2-0.3c0.1,0,0.1,0.1,0.1,0.1c0,0.1-0.2,0.1-0.2,0.1c0,0.1,0.2,0.1,0.1,0.1c-0.1,0.3-0.5,0-0.8,0.1
			c-0.1,0-0.5,0.1-0.4,0.3c0.1,0.1,0.3,0,0.5,0c0.2,0,0.2,0.1,0.1,0.2c-0.2,0.1-0.6,0.1-1,0.1c-0.2,0-0.5,0.1-0.6,0.2
			c0,0,0.1,0.2,0.1,0.2c0.4,0.1,0.2,0,0.9,0.1c0.1,0,0.4-0.1,0.5-0.2l0.5,0c0,0,0,0.1,0.2-0.1c0.1,0,0.3-0.1,0.1,0.2
			c0,0,0.2,0.1,0.1,0.2c-0.1,0.1-0.3,0.2-0.2,0.2c0.3,0.1,0.4,0.1,0.9-0.2c0.1-0.1,0,0.3-0.2,0.4l-0.4,0.1l-0.1,0
			c-0.2,0-0.3,0.3-0.4,0.2c-0.1-0.1-0.2,0.1-0.3,0c-0.1,0-0.2-0.3-0.3-0.2c-0.1,0,0.1,0.3,0,0.3c-0.1,0-0.9-0.1-0.6,0
			c0.2,0.1,0.5,0.1,0.6,0.2c0.1,0.1,1.1,0.2,1.8,0c0,0-0.2,0.3-0.3,0.3c-0.1,0-0.3,0-0.4,0.1c-0.1,0.1,0.2,0.1,0.2,0.1
			c0,0,0.3-0.1,0.4,0c0.1,0.1,0,0.1-0.4,0.2c-0.1,0-0.4,0.1-0.5,0c-0.1,0-0.2,0.1-0.3,0c-0.1,0-0.3-0.2-0.4-0.3c0,0-0.2,0.1-0.2,0.1
			c0.1,0,0.2,0.1,0.2,0.2c0,0.1-0.3,0.1-0.5-0.1c-0.1-0.1-0.3,0-0.3,0.1c-0.1,0.1,0,0.2,0.1,0.2c0.2,0,0.1,0.1,0.2,0.1
			c0.2,0.1,0.5-0.3,0.6,0.1c0,0.2-0.3,0-0.5,0.1c-0.2,0.1-0.3,0.1-0.3,0.1c0.1,0.2,0.4,0.2,0.6,0.1c0.3-0.1,0.4,0,0.8-0.1
			c0.1,0,0.3,0,0.4,0c1.4-0.5-0.2,0.5-0.3,0.5c0.8,0.2,0.4,0,0.8,0c0.1,0,0.3,0,0.4,0c0.1,0,0.4,0,0.4,0.2c-0.1,0-0.3-0.1-0.4,0.1
			c0,0,0.1,0.1,0,0.1c-0.3,0.1-0.5,0.2-0.8,0.1c-0.1-0.1-0.1,0.1-0.3,0c-0.3,0-0.2,0.1-0.4,0c-0.2-0.1-0.3-0.2-0.4-0.2
			c-0.1,0-0.1,0.1-0.1,0.2c0.1,0.2,0.2,0.3,0.3,0.4c0,0,0.1,0,0.1,0c0.4-0.1,0.3,0.1,0.2,0.2c-0.1,0.1-0.7-0.1-1-0.2
			c-0.1,0-0.2-0.6-0.5-0.1c-0.1,0.1,0.3,0.4,0.8,0.5c0,0.1,0.9,0.1,0.4,0.4c-0.1,0-0.7-0.1-0.8-0.1c-0.1,0,0,0.4-0.1,0.3
			c-0.3-0.2-0.1-0.4-0.3-0.5c0,0-0.3-0.2-0.4-0.2c-0.2-0.4-0.2-0.1-0.3-0.2c-0.9-0.7-0.1,0.1-0.3,0.1c-0.1,0,0,0.2,0.2,0.2
			c0.1,0,0.3,0.1,0.3,0.1c0.1,0-0.1,0.1-0.1,0.2c0,0.1-0.3,0-0.3,0.1c0,0,0.4,0.2,0.1,0.2c-0.3,0-0.5-0.3-0.6-0.4
			c-0.1,0-0.1,0-0.1,0c0.1,0,0.1,0.1-0.1,0.1c-0.2,0-0.4-0.2-0.4-0.2c0,0-0.2,0-0.2,0c0,0,0.1,0.1,0.1,0.1c0.1,0,0.1,0.1,0.3,0.2
			c0,0,0.1,0,0.2,0.2c0.1,0.2-0.3,0-0.3,0c0,0,0.1,0-0.2-0.1c-0.1,0,0,0.2-0.4-0.1c-0.2-0.1-0.4-0.4-0.4-0.4
			c-0.1-0.1-0.2,0.1-0.4-0.3c0,0-0.4,0-0.6,0.1c-0.2,0.1-0.1,0.7-0.1,0.7c0,0.1,0,0.3,0,0.6c0,0.4,1.4,0.3,1.4,0.5H91
			c0-0.1,1.4-0.2,1.4-0.5c0-0.4,0-1,0-1s0-0.2,0-0.3c0-0.3-0.5-0.2-0.5-0.2c0,0-0.3-0.1-0.4,0c-0.1,0.1,0.2,0.3,0.1,0.4
			c-0.1,0.1-0.1,0.3-0.2,0.3c-0.6-0.3-0.8-0.2-1,0.1c-0.1,0.1,0.1,0.4-0.8,0.3c0,0,0.4-0.4,0.4-0.4c0-0.2-0.4,0.2-0.7,0.3
			c-0.6,0.3-0.7,0.1-0.8,0c0,0,0.9-0.3,0.9-0.3c0.1-0.2,0.4-0.3,0.5-0.5c0.1-0.1,0.1-0.2,0.1-0.3c-0.1-0.1-0.3-0.1-0.5-0.1
			c-0.1,0-0.1,0.1-0.1,0.1c0,0.1,0.1,0.2,0.1,0.3c0,0.1-0.1,0.2-0.1,0.2c-0.1,0-0.3,0-0.4,0c-0.2,0-0.2,0.2-0.4,0.3
			c-0.1,0-0.2-0.2-0.2-0.2c-0.7,0.1-1.3,0.5-2,0.5c0.2-0.2,0.4-0.2,0.7-0.3c0,0,0.1-0.1,0.1-0.1c0,0,0-0.1-0.1-0.1v-0.1
			c0.4,0,0.7-0.1,1.1-0.4c0.1,0,0.2-0.1,0.3-0.1c0.1,0,0.2-0.1,0.1-0.2c-0.1-0.1-0.2-0.2-0.3-0.1c-0.2,0.1-0.4,0.3-0.4,0.2
			c0.2-0.7-0.7,0.4-1.1,0.3c0,0,0.1-0.1,0-0.1c-0.1-0.1-0.2-0.1-0.3-0.1c-0.1,0-0.4-0.1-0.3-0.3c0.1-0.2,0.4,0.1,0.6,0
			c0,0,0.4-0.2,0.5-0.3c0.1-0.1-0.1-0.2-0.1-0.2c-0.1-0.1-0.4,0-0.5,0c-0.1-0.1-0.1-0.1-0.1-0.3c0-0.1,0-0.2-0.1-0.2
			c-0.1,0-0.2-0.1-0.3-0.1c-0.1,0-0.3,0.1-0.4,0.1c-0.2-0.1,0-0.2-0.1-0.3c-0.1,0-0.1,0-0.2-0.1c-0.1-0.1-0.2-0.2-0.2-0.3
			C85.3,26.9,85.5,26.9,85.6,27z M52.6,0.2v20c0,10.1,0,21.6,0,26.8c0,4.1,1.4,7.2,3.7,9.4c3.3,3.3,8.2,4.7,12.7,5.9
			c4.5,1.2,8.7,2.2,10.3,3.9L80,67l0.7-0.7C83,63.9,89.6,63,95.6,61c3-1,6-2.4,8.2-4.6c2.2-2.2,3.7-5.3,3.7-9.4c0-5.2,0-16.7,0-26.8
			v-20H52.6z M106.4,47c0,15.6-20.9,13-26.4,18.5c-5.5-5.5-26.4-3-26.4-18.5c0-10.4,0-45.8,0-45.8h52.8
			C106.4,1.2,106.4,36.6,106.4,47z M57,33.4c0.1,0,0.2,0,0.3,0c0.1-1,0.8-1.8,1.6-2.1V18.7l-3.8-3.8c0,4.6,0,12.3,0,19.4
			C55.6,33.7,56.3,33.4,57,33.4z M77.8,17l0.6-0.1v17.3H61.9l-0.3,0l0.1-0.6c0-0.9-0.8-1.7-1.7-1.7c-0.9,0-1.7,0.8-1.7,1.7l0,0.4
			l0.1,0.6l-0.5-0.3c-0.2-0.1-0.5-0.2-0.8-0.2c-0.9,0-1.7,0.8-1.7,1.7c0,0.9,0.8,1.7,1.7,1.7c0.3,0,0.5-0.1,0.8-0.2l0.5-0.2l-0.1,1
			c0,0.9,0.8,1.7,1.7,1.7c0.9,0,1.7-0.8,1.7-1.7l-0.1-0.6h16.8v19.1l0,0.3l-0.6-0.1c-0.9,0-1.7,0.8-1.7,1.7c0,0.9,0.8,1.7,1.7,1.7
			l0.4,0l0.6-0.1l-0.3,0.5c-0.1,0.2-0.2,0.5-0.2,0.8c0,0.9,0.8,1.7,1.7,1.7c0.9,0,1.7-0.8,1.7-1.7c0-0.3-0.1-0.5-0.2-0.8l-0.2-0.5
			l0.9,0.1c0.9,0,1.7-0.8,1.7-1.7c0-0.9-0.8-1.7-1.7-1.7L81.6,57V37.6h16.6l0.3,0l-0.1,0.6c0,0.9,0.8,1.7,1.7,1.7
			c0.9,0,1.7-0.8,1.7-1.7l0-0.4l-0.1-0.6l0.5,0.3c0.2,0.1,0.5,0.2,0.8,0.2c0.9,0,1.7-0.8,1.7-1.7c0-0.9-0.8-1.7-1.7-1.7
			c-0.3,0-0.5,0.1-0.8,0.2l-0.5,0.2l0.1-1c0-0.9-0.8-1.7-1.7-1.7c-0.9,0-1.7,0.8-1.7,1.7l0.1,0.6H81.6v-17l0-0.3l0.6,0.1
			c0.9,0,1.7-0.8,1.7-1.7c0-0.9-0.8-1.7-1.7-1.7l-0.4,0l-0.6,0.1l0.3-0.5c0.1-0.2,0.2-0.5,0.2-0.8c0-0.9-0.8-1.7-1.7-1.7
			c-0.9,0-1.7,0.8-1.7,1.7c0,0.3,0.1,0.5,0.2,0.8l0.2,0.5l-1-0.1c-0.9,0-1.7,0.8-1.7,1.7C76,16.3,76.8,17,77.8,17z M62.7,14.2
			l3.8,3.8v8.3l-3.8-3.7v11h3.8v-7.3l3.7,3.7v3.5h3.5l-3.5-3.5v-8.3l3.7,3.7v8h3.5V29L74,25.4V10.6h-3.8v11.1l-3.7-3.7v-7.4h-3.8
			V14.2l-3.6-3.6H59v8.1l3.8,3.8V14.2z M82.5,43.4L97,57.9c0.8-0.3,1.5-0.7,2.2-1.1L82.5,40.2V43.4z M71.4,44.6
			C71.4,44.6,71.4,44.6,71.4,44.6c-0.2,0-0.4,0.1-0.6,0.2c0.1,0.2,0.2,0.4,0.3,0.6l0.3-0.3L71.4,44.6z M71,43.5l0.1-0.3l-0.3,0.2
			C70.8,43.5,71,43.5,71,43.5z M75.2,53.5l0.6-0.9l-1.1-0.7l0.5-0.9L75,51l0.3-0.7l-0.2,0l0.1-0.5L75,49.1l-0.9-0.7l-0.3-0.6l0.1-1
			l0.2,0l0-0.5l-0.2-0.7l0.3,0L74,44.5l0.2-0.1L74,44l-0.6-0.7l0.1-0.1l-0.6-0.5l-0.4-0.2c-0.1,0.1-0.2,0.2-0.2,0.2l-0.1-0.1
			l0.2-0.4l0-0.4l-0.1-0.3l0-0.2l0-0.1L71.8,42l-0.2,0.2l-0.1,0.1l0-0.1l-0.1-0.1l-0.1,0l0,0.2l-0.4,0.2l-0.6,0.7l0.1,0.2l-0.3,0.2
			v0l-0.5,0.3c0,0-0.3,0.3-0.3,0.3s0,0.3,0,0.3c0,0,0.4,0.2,0.4,0.2l0.1,0l0.5-0.3l0.8-0.3l0.2,0.1l-0.1,0.1l-0.2,0l-0.7,0.2
			L70,44.7c0,0,0,0,0.1,0.1c0,0,0.1,0.1,0.1,0.1c0.5-0.3,1.3-0.5,1.3-0.5l0,0l0.5,0.3l0-0.3l0.3-0.2l0,0.1l-0.2,0.1l0,0.5l-0.5-0.2
			l0,0.6l-1.2,1l0.2,0.1l0,0.5l0.2-0.1l0,0.7l0.2-0.1l0.2,0.4c0,0,0.1,0,0.1,0l0.1-0.7l-0.1-0.1l0.1-0.1l0.3,0.1l-0.2,1.3l-1.6,0.7
			l-0.8-0.2l-0.4,0.4l0.1,0.3l0.1,0.1l0-0.3l0.2-0.2l0.1,0l-0.1,0.3l0,0.3l0.2,0.1l0-0.3l0.2-0.2l0.1,0l-0.1,0.3l0,0.3l0.2,0.1
			l0.1,0l0.1,0l0.1-0.4l0.3,0.1l0.1-0.3l2.2-0.5l0.4-0.8l0.4,0l0,0.1l-0.2,0.1L73,49.1l-0.3,0.1l0.8,0.8l-0.2,1.4l0.6,0l-0.3,0.7
			l1.5,0.6l-0.2,0.5l-1,0l-0.3,0.4l0.1,0.3l0.2,0l-0.1-0.3l0.2-0.3l0.1,0l0,0.3l0.1,0.3l0.2,0l-0.1-0.3l0.2-0.3l0.1,0l0,0.3l0.1,0.3
			l0.2,0.1l0.1,0l0.1-0.1l0-0.4l0.5,0.1L75.2,53.5z M70.8,43.6l-0.2,0l-0.2,0.1l0-0.1l0.6-0.6l0.6,0.4L70.8,43.6z M72,42.4L72,42.4
			l0.3-0.8l0,0.1l0,0.4L72,42.4z M72.3,49.3l-1,0.2c-0.2,0.9-0.5,1.8-1.2,2.5l0.2,0.5h0l0.9,0l0.6-0.4L71.3,51l0.1-0.1l0.2-0.2
			l-0.2-0.3l1.1-1L72.3,49.3z M77.5,61.2c-1.3-0.1-2.3-1.2-2.3-2.5c0-1.3,1-2.4,2.3-2.5V38.4H62.4c-0.1,1.3-1.2,2.4-2.6,2.4
			c-1.3,0-2.4-1-2.5-2.3c-0.1,0-0.2,0-0.3,0c-0.7,0-1.4-0.3-1.9-0.8V47c0,12.5,14.6,11.9,22.4,15.2c-0.1-0.2-0.1-0.5-0.1-0.7
			C77.5,61.4,77.5,61.3,77.5,61.2z M75,54.3l-0.2,0.2l-0.1,0l-0.1,0l0,0.2l-0.1,0l-0.1-0.2l-0.2-0.1l0,0.2l-0.1,0L74,54.3l-0.2-0.1
			l0,0.2l-0.1,0l-0.1-0.2l-0.1,0l0-0.1l-0.3-0.5l0.5-0.7l1,0l0,0l-1.5-0.6l0.1-0.2l0.2-0.5l0,0L73,52.2l0.2,0.4l-1,0.6l0,0.5l-0.2,0
			l-0.5,0l0,0.2l0,0.1l-0.2,0.2l-0.1,0l-0.1,0l0,0.2l-0.1,0L71,54.1L70.8,54l0,0.2l-0.1,0L70.6,54l-0.2-0.1l0,0.2l-0.1,0l-0.1-0.2
			l-0.1,0l0-0.1l-0.1-0.2l-0.2,0L69,52.9c-0.5,0.2-1,0.4-1.7,0.4L67.2,54h-0.7l-0.2-0.7c-0.7,0-1.2-0.2-1.7-0.4l-0.7,0.8l-0.1,0
			l-0.1,0.2l-0.1,0l-0.1,0.2l-0.1,0l0-0.2L63.1,54L63,54.2l-0.1,0l0-0.2l-0.2,0.1l-0.1,0.2l-0.1,0l0-0.2l0,0l-0.2,0l0-0.1L62,53.9
			l0-0.1l0-0.2l-0.7,0l0-0.2l0-0.3l-1-0.6l0.1-0.1l0.1-0.3l-0.4-0.5l0,0l0.2,0.6L59,52.9l0,0l1,0l0.5,0.7l0,0.1l-0.2,0.5l-0.1,0
			L60,54.4l-0.1,0l0-0.2l-0.2,0.1l-0.1,0.2l-0.1,0l0-0.2l-0.2,0.1l-0.1,0.2l-0.1,0l0-0.2h0l-0.2,0l0-0.1l-0.2-0.2l0-0.1l0-0.1
			l-0.6,0.1l0-0.2l0-0.3l-0.7-1.1l1.1-0.7l-0.6-1l0.3,0l0,0L58,50l0.2,0l-0.1-0.3l0,0l0-0.1l-0.9-1l-0.3-1.9l0.2,0.1L57,45.6l0-0.2
			l0.1,0c-0.1-0.6-0.5-1.3-0.5-1.3l0-0.1l0-0.1l0.2-0.4l0.2,0.1c0,0,0.9,0.8,1.3,1.1c0.3,0.3,0.3,0.9,0.4,1.5c0,0.8-0.1,1.6-0.1,2
			c0,0.1,0,0.2,0,0.2l0.1,0.3l0.6-0.5l0.2-0.4l-0.1-0.7l-0.3,0l0-0.2l0-0.7l0.1-0.4l-0.3,0l0.4-1.2L59,44.6l0.1-0.2l0.3-0.5l0.4-0.6
			l-0.2-0.2l1-0.7l0.3-0.2l0-0.1l0,0l0-0.4l0.1-0.3l-0.1-0.3l0.1-0.1l0.2-0.2l0.8,0.8l0.1-0.2l0-0.3l0.1-0.1l0.3-0.2l0.7,1.1l0,0.1
			L63,42.4l0.6,0.7l0,0.1l0,0.1l0.4,0.2c0.8-0.6,1.8-1,2.9-1c1.1,0,2.1,0.4,2.9,1l0.4-0.2L70,43.1l0.6-0.7L70.5,42l0.7-1.1l0.1,0.1
			l0.2,0.2l0,0.1l0,0.2l0.1,0.2l0.8-0.8l0.1,0.1l0.2,0.2l0,0.1l-0.1,0.2l0.1,0.3l0,0.4l0,0l0,0.1l0.4,0.2l0.9,0.7l-0.2,0.1l0,0
			l0.5,0.6l0.4,0.7l-0.2,0l-0.1,0l0.4,1.2l-0.2,0l-0.1,0l0.1,0.4l0,0.8l-0.2,0l-0.1,0l-0.1,0.7l0.2,0.4l0.6,0.5l0.1-0.3
			c0,0,0-0.1,0-0.2c0-0.4-0.1-1.2-0.1-2c0-0.6,0-1.2,0.4-1.5c0.4-0.3,1.3-1.1,1.3-1.1l0.2-0.1l0.1,0.2l0.1,0.3l0,0.1
			c0,0-0.4,0.6-0.5,1.3l0.1,0l-0.2,1.3l0.2-0.1l-0.3,1.9l-0.9,1l0.1,0.2l0,0L75.5,50l0.2,0l-0.1,0.2l-0.2,0.5l0.3,0l-0.6,1l1.1,0.7
			l-0.7,1.1l0,0.5l-0.2,0L75,54L75,54.3L75,54.3z M82.5,56.1c1.3,0.1,2.3,1.2,2.4,2.5l2.2,2.2c0.8-0.2,1.7-0.4,2.6-0.7l-7.2-7.2
			V56.1z M82.6,61.2c0,0.1,0,0.2,0,0.3c0,0.2,0,0.5-0.1,0.7c0.7-0.3,1.4-0.5,2.1-0.8l-0.8-0.8C83.4,61,83,61.1,82.6,61.2z"/>
	</g>
</g>
</svg>
