<?xml version="1.0" encoding="utf-8"?>
<!-- Generator: Adobe Illustrator 21.1.0, SVG Export Plug-In . SVG Version: 6.00 Build 0)  -->
<svg version="1.1" id="Layer_1" xmlns="http://www.w3.org/2000/svg" xmlns:xlink="http://www.w3.org/1999/xlink" x="0px" y="0px"
	 viewBox="0 0 100 125" style="enable-background:new 0 0 100 125;" xml:space="preserve">
<style type="text/css">
	.st0{fill:#209765;}
	.st1{fill:#0D4B34;}
	.st2{fill:#FFFFFF;}
</style>
<path id="Path_1211" class="st0" d="M0.4,2.1v36.2c0,18.4,0,39.1,0,48.5c0,7.4,2.6,13,6.6,17c6.1,6,14.9,8.5,23.1,10.7
	c8.1,2.1,15.7,3.9,18.7,7.1l1.3,1.3l1.3-1.3c4-4.3,16-5.9,26.9-9.5c5.5-1.9,10.8-4.3,14.8-8.3s6.6-9.6,6.6-17c0-9.4,0-30.1,0-48.5
	V2.1H0.4z"/>
<path id="Path_1215" class="st1" d="M4.6,7.1V41c0,16.7,0,35.5,0,44c0,6.7,2.4,11.8,6.1,15.5c5.5,5.5,13.7,7.7,21.1,9.7
	c7.5,1.9,14.3,3.6,17.1,6.4l1.2,1.2l1.2-1.2c3.7-3.9,14.6-5.4,24.6-8.6c5-1.7,9.9-3.9,13.6-7.5c3.7-3.7,6.1-8.7,6.1-15.5
	c0-8.5,0-27.4,0-44V7.1H4.6z"/>
<path id="Path_1213" class="st2" d="M25.3,74.6c0.2,0.1,0.4,0.2,0.6,0.3c0.6,0.2,0,0.6,0.5,0.9c0.4,0,0.8-0.1,1.2-0.2
	c0.3,0,0.7,0.1,1,0.3c0.2,0.2,0.3,0.5,0.3,0.7c0,0.3,0.1,0.6,0.3,0.9c0.2,0.2,1.5-0.1,1.7,0.1c0.1,0.1,0.6,0.4,0.3,0.7
	c-0.5,0.3-1.1,0.6-1.6,0.9c-0.8,0.2-1.8-0.9-2.1-0.1c-0.2,0.5,0.5,0.8,1,0.9c0.4,0,0.8,0.2,1.1,0.5c0.1,0.1-0.1,0.5-0.1,0.5
	c1.3,0.3,4.2-3.6,3.7-1.1c-0.1,0.5,0.8-0.3,1.4-0.5c0.4-0.1,0.9,0.1,1,0.5c0.2,0.3-0.2,0.6-0.4,0.6c-0.3,0.1-0.6,0.2-0.9,0.4
	c-1,0.9-2.3,1.3-3.6,1.3v0.2c0.2,0,0.4,0.1,0.4,0.2c-0.1,0.2-0.2,0.3-0.4,0.4c-0.8,0.2-1.6,0.5-2.3,1c2.5,0.1,4.5-1.4,6.9-1.8
	c0.1,0,0.3,0.7,0.8,0.5s0.7-0.8,1.2-0.9c0.5-0.1,0.9,0.1,1.4,0c0.3-0.1,0.5-0.3,0.5-0.6c-0.1-0.3-0.4-0.5-0.3-0.9
	c0.1-0.2,0.2-0.5,0.4-0.5c0.5,0,1.2-0.2,1.6,0.3c0.2,0.3,0,0.7-0.2,1c-0.4,0.7-1.5,1.1-1.8,1.9c-0.1,0.2-3.1,1.1-3,1.1
	c0.4,0.3,0.6,1.2,2.8,0.1c0.8-0.4,2.2-1.5,2.3-0.9c-0.5,0.5-1,1-1.4,1.5c2.8,0.5,2.3-0.5,2.6-0.9c0.8-1,1.5-1.1,3.4-0.2
	c0.4,0.2,0.4-0.6,0.7-1c0.2-0.3-0.7-1.2-0.5-1.4c0.3-0.4,1.2,0,1.2,0s1.6-0.4,1.7,0.6c0,0.2,0,0.9,0,0.9s0,1.9-0.1,3.2
	c0,1.1-4.7,1.2-4.7,1.7h13c0-0.7-4.6-0.5-4.6-1.7s0-1.7,0-2.2c0,0-0.3-2,0.3-2.2c0.7-0.1,1.3-0.2,2-0.2c0.5,1.5,0.9,0.9,1.2,1.2
	c0.4,0.5,0.9,0.9,1.4,1.2c1.2,0.8,0.8,0.2,1.3,0.3c0.9,0.2,0.6,0.2,0.7,0.2c0,0,1.3,0.4,1.1-0.1c-0.1-0.3-0.4-0.5-0.7-0.5
	c-0.5-0.3-0.8-0.5-1-0.6c-0.1-0.1-0.3-0.2-0.4-0.4s0.8,0,0.6-0.1c0.4,0.3,0.8,0.6,1.3,0.7c0.6,0,0.5-0.3,0.2-0.4
	c0-0.1,0.1-0.2,0.2-0.2h0.1c0.3,0.1,0.9,1.3,2,1.3c0.9,0-0.5-0.6-0.4-0.7c0.3-0.2,1.1,0,1.2-0.3c0.1-0.2,0.6-0.5,0.2-0.5
	c-0.4-0.1-0.8-0.1-1.2-0.3c-0.4-0.1-1-0.8-0.6-0.8c0.5,0-2.2-2.5,0.9-0.2c0.5,0.4,0.5-0.6,1.1,0.6c0.4,0.3,0.8,0.5,1.2,0.7
	c0.6,0.4-0.1,1.2,0.9,1.7c0.4,0.2,0-1.3,0.4-1.1c0.9,0.2,1.8,0.3,2.8,0.4c1.7-0.9-1.2-1-1.4-1.2c-1.5-0.4-2.9-1.1-2.6-1.6
	c0.8-1.7,1.1,0.4,1.6,0.5c1.1,0.2,3.2,1,3.5,0.5c0.3-0.3,0.5-0.8-0.8-0.6c-0.1,0-0.2,0-0.4,0c-0.5-0.3-0.9-0.8-1.1-1.4
	c0-0.2,0.1-0.5,0.3-0.5c0.6-0.2,1,0.4,1.5,0.6c0.8,0.3,0.6-0.2,1.4-0.1c0.5,0.1,0.5-0.4,1-0.1c0.9,0.4,1.9,0.3,2.7-0.2
	c0.1,0-0.2-0.3-0.1-0.4c0.4-0.4,1-0.2,1.4-0.2c-0.1-0.7-0.9-0.4-1.4-0.5s-0.9-0.1-1.4,0c-1.3,0,0,0.7-2.9-0.1
	c0.4,0.1,5.8-3.3,1.1-1.6c-0.2,0.1-1.1-0.1-1.4-0.1c-1.4,0.4-1.7,0-2.8,0.3c-0.7,0.2-1.4,0-1.9-0.5c-0.1-0.2,0.3-0.2,0.9-0.5
	s1.6,0.2,1.6-0.4c-0.1-1.2-1.2-0.1-1.9-0.4c-0.2-0.1,0-0.3-0.6-0.3c-0.4,0-0.6-0.3-0.4-0.6c0.2-0.4,0.8-0.9,1.1-0.5
	c0.7,0.8,1.9,0.9,1.9,0.5c0-0.2-0.6-0.5-0.8-0.6c0.2,0,0.6-0.4,0.8-0.3c0.4,0.5,0.9,0.8,1.4,1.1c0.4,0.1,0.8-0.3,1.2-0.2
	c0.6,0.1,1.2,0,1.7-0.1c1.3-0.3,1.8-0.5,1.3-0.8c-0.5-0.1-1-0.1-1.5,0c0.1,0-0.9-0.3-0.6-0.5c0.4-0.2,0.9-0.3,1.3-0.3
	c0.3-0.3,0.6-0.6,0.9-0.9c-2,0.5-4.2,0.5-6.2,0c-0.5-0.2-1.7-0.3-2.2-0.6c-0.9-0.6,1.6-0.2,2-0.1c0.3,0.1-0.3-0.8,0.1-0.9
	c0.4-0.1,0.9,0.7,1.2,0.8c0.4,0.1,0.7-0.4,1.1-0.1c0.5,0.3,1-0.8,1.5-0.6l0.2-0.1l1.4-0.4c0.9-0.3,1.1-1.6,0.8-1.4
	c-1.6,1-2,0.8-3,0.6c-0.4-0.1,0.2-0.3,0.7-0.6c0.4-0.2-0.3-0.5-0.2-0.6c0.8-0.8,0.2-0.5-0.2-0.6c-0.5,0.6-0.6,0.4-0.6,0.4l-1.6,0.1
	c-0.5,0.3-1.1,0.4-1.7,0.5c-2.3-0.3-1.7,0-2.9-0.4c-0.2-0.2-0.3-0.4-0.4-0.7c0.7-0.4,1.4-0.5,2.2-0.5c1.2-0.1,2.8,0.1,3.3-0.3
	c0.3-0.3,0.2-0.6-0.4-0.7c-0.6-0.2-1.4,0.1-1.8-0.1c-0.6-0.4,0.8-0.8,1.2-0.9c0.9-0.2,2.2,0.9,2.7-0.2c0-0.1-0.5-0.2-0.5-0.5
	c0-0.2,0.4-0.3,0.5-0.5c0.1-0.1,0-0.3-0.1-0.4c-0.1,0-0.1,0-0.2,0c-1.4,0.1-2.8,0.4-4.2,1c-1.2,0.4-1.3-0.5-2.5-0.1
	c-0.5,0.2-0.3,0.7-0.4,1.1c-0.1,0.2-0.3,0.3-0.5,0.4c-1.1,0,0.3-1-0.7-1.2c-0.8-0.1-1.3,0.8-1.8,0c-0.5-0.2-0.3-0.8,1.3-0.7
	c1-0.1,1.9-0.2,2.9-0.5c0.5-0.1,1.1,0.1,1.5,0c0.1,0,0.3,0,0.3-0.1s-0.1-0.1-0.1-0.2c0.8-0.3,1.6-0.5,2.4-0.6
	c0.9-0.1,1.6-0.5,2.1-1.2c0-0.9-1.8,0.8-2.4,0.6C67.7,61,66.8,61,65.9,61c-0.8,0.1-1.6,0.2-2.4,0.1c-0.8-0.2-1,0.3-1.8,0.2
	c-0.2,0-0.3-0.3-0.4-0.3c-1.5-0.3-1.4-1-0.6-1l0.8,0.2c1.9,0.2,1.1-0.5,1.4-0.5c0.4,0,3.1,0.5,3.3,0c0.3-0.4-4.2-0.7-4.2-1.1
	c0-0.2,1.4,0,1.6,0s-0.2-0.5,0.3-0.9l1.3,0.1c-0.9,0.8-0.4,0.7,0.4,0.7c0.2,0,0.4,0,0.6-0.1h0.7c0.7-0.1,1.5,0.3,2.2-0.1
	c0.4-0.2-1.7-0.3-1.5-0.5c0.3-0.5,1.2-0.2,1.6-0.9c-1.5,0,0-0.9-2.1,0.3L67,56.9c0.7-0.7,1.3-1,1.2-0.8c0.3-1.5-1.6,0.9-3.3,0.4
	c-0.6-0.2,1.6-1,0.9-1c-0.8,0-1.5,0.3-2.1,0.8h-0.1c-0.9,0.2-0.9-0.4-1.2-0.4c0,0-0.3-0.7,0.2-0.8s0.9-0.3,1.3-0.6
	c0.8-0.4-0.3-0.5,0.4-0.9c0.6-0.3,0.7-0.5,1.3-0.8c0.6-0.3,1.5-1.1,1.1-1.3c-0.8-0.5-0.9,0.9-1.7,0.8c-0.6-0.1-2.2,0.9-3,1.2
	c-0.4,0.2-1.4-0.5-0.6-0.6c0.2,0,1.6-0.9,1.5-0.8c0.3-0.5,0.6-1.1-0.4-0.7c-0.6,0.3-1.2,0.6-1.8,1c-0.2,0.1-0.3-0.2-0.5,0
	c-0.3,0.4,0.2,0.7-0.3,0.6c-0.5-0.1,0-0.6-0.3-1l-0.2-0.1c-0.3-0.3-0.5-0.6-0.7-0.9c-0.2-0.3,0.3-0.8,0.6-0.7c0.9,0.3,1.8,0.2,2.6,0
	c0.1-0.1,0.5-0.3,0.5-0.4c0.3-0.7-0.5-0.3-0.7-0.2c0,0-0.4-0.1-0.4-0.2c0.4-0.5,1.1-0.6,1.7-0.3c0.7,0.3,1.7,0.9,2.3,0.2
	c-0.5-0.6-1.4-0.3-1.5-1c-0.1-0.3,0.3,0.2,0-0.4c-0.6,0-0.5,0.1-1,0.1s-1,0-1.5,0.1c-0.4,0.1-2.3-0.2-2.7-0.1
	c-0.3,0.1,0.1-0.1-0.2-0.3c-0.8-0.5-0.9,0.4-1.2-0.4c-0.1-0.1,0.2-0.7,0.4-0.7c0.1,0,0.3,0,0.4,0h0.1h0.6c0.5-0.1,0.1-0.3,0.6-0.4
	c0.7-0.2,1.9,0.9,2.5,0.2c0.2-0.2,0-0.2-0.7-0.5c-0.4-0.2-0.1-0.8,1.1-0.3c0.3,0.1,0.6,0.2,0.9,0.1c1.1-0.6,0.7-1-0.8-0.8
	c-0.1,0-1-0.3-1-0.5c-0.1-0.3,0.6-0.6,0.6-0.6c0.1-0.1,0.3-0.2,0.6-0.2c0.5-0.1,1-0.3,1.5-0.5c0.4-0.2,0.8-0.6,0.8-0.9
	c0-0.2-0.7,0.1-1.3,0.3h-0.8c-1.8,0.4-1.1-0.4-2.5,0.2c-1.3,0.5-1.3,1-1.5,0.9l-0.2,0.2c-0.1,0.1-1,0.3-1.1,0.4l-0.9,0.1
	c-0.8,0.2-0.5-1.2-0.5-1.2c0.3-0.3,0.7-0.4,1.1-0.6c0.7-0.3,1.6-0.7,1.5-0.8c0-0.1,0.3-0.1,0.8-0.3c0.3-0.1,0.7-0.3,1-0.4
	c0.5-0.2,0.9-0.5,1.3-0.8c1.3-1.5-1.4,0.4-1.8,0.2c-0.5-0.3-0.5-1-1.8,0.2c0.1,0,0,0.2-0.3,0.3c-0.5,0.1-1.6,0.2-1.7-0.4
	c0-0.1,0.1-0.2,0.1-0.3c1.1-0.4,2.4-1.6,3.4-2.1c0.5-0.3,1-0.6,1.5-1c-1.3-0.2-2.2,0.7-2.7,0.3c-0.2-0.2,0.4-0.3,0.5-0.6
	c0.4-1.2,1.9-1.1,1.6-1.7c-0.7,0.1-1.9,0.7-2.5,0.7c-0.2,0,0.8-1.3-0.1-1.1c0,0-1,1.8-1.1,1.8c-0.5,0.4-0.9,0.9-1.7,0.8
	c0,0-0.1-0.5,0.8-1.1s0.2-0.8-0.2-0.7c-0.4,0.1-1.2,1.5-1.5,1.2c-0.4-0.5-0.3-1.2,0.1-1.7c0.1,0,0.8-0.9,1.2-0.8
	c0-0.4,1-0.4,1.1-0.5c0.6-0.2,1.4-0.6,1.4-1.1c0-0.1,0.3-0.2-0.8,0.2c-1,0.4,0.2-0.6-1.6,0.2c-0.6,0.3-0.4-0.2-0.2-0.7
	c0.3-0.6,0.3-1-0.6,0.1c-0.2,0.2-0.5,0.3-0.7,0.4c-0.1,0-0.6-0.5-0.9-0.4c-0.4,0.1-1-0.2-1-0.5c0-0.4,0.5-0.3,0.8-0.6
	c0.1,0,0.8-0.4,0.9-0.4c0.3-0.1-0.8-0.2-0.6-0.4c0.6-0.7,0.7-0.5,1-0.7c0.2-0.1,0.9-0.2,0.8-0.5c-0.2-0.3-1.1,0.3-1-0.2
	c0.1-0.4,0.3-0.7,0.5-1c-0.8,0-0.9,0.5-1.6,0.9c-0.6,0.4-0.6,0.6-1.2,0.7c-0.3,0-0.5-0.5-0.6-0.8s0.8-0.8,1-1s0.2-0.7-0.4-0.4
	c-0.4,0.2-0.8,0.4-1.3,0.5c-0.1,0-0.2-0.2-0.2-0.3c0,0,0,0,0-0.1c0.1-0.1,0.7-0.7,0.7-0.8c0.2-1.5-0.8-0.3-0.9-0.4
	c-0.3-0.1-0.1-0.7-0.4-1.3c-0.2-0.9,0.2-0.8-0.2-0.9c-0.2-0.1-0.3,0-0.4,0.2c-0.3,0.4-0.3,1,0.1,1.3c0.4,0.7,0,1.3,0,1.6
	c0,0.8-1.1-1-1.2-0.4c-0.1,0.2,0.7,1.1,0.5,1.8c-0.1,0.3-0.7,0.2-1.1-0.1c-0.3-0.2-0.8-0.8-1-0.7c-0.2,0.2,0.3,0.7,0.5,0.9
	c0.3,0.3,0.8,0.7,1,1.1c0.1,0.3,0.1,0.6-0.2,0.6c-0.3,0.1-1.1-1-1.5-0.5c0,0-0.4,0,0.3,0.7c0.6,0.7,1.3,1.3,0.7,1.4
	c-0.2,0-0.3-0.2-0.4-0.3c-0.2-0.3-0.8-0.1-1.2-0.2c-0.4-0.2-0.7-0.7-1.1-0.9c-0.1-0.1-0.3-0.1-0.4,0s0.2,0.4,0.2,0.5
	c0.2,0.3,0.3,0.3,0.5,0.5s-0.3,0.3-0.1,0.5c0.1,0.2,0.8,0.3,0.9,0.5c0.6,1.1,0.8,1.4,0.8,1.9c0,0.1-0.8,0-0.9-0.1
	c-0.4-0.3-0.8-0.7-1.2-1.1c-0.3-0.3-0.6-0.5-1-0.7c-0.3-0.2-0.7-0.3-1.1-0.2c0.8,1.1,1.5,1.3,1,1.9c-0.1,0.1,0.7,0.3,0.6,0.6
	s-0.6,0.7-0.7,0.9c-0.7,0.5-0.6,0.8-0.4,0.7c0.4-0.2,1.1-0.3,1.5-0.5c0,0,0.4,0.6,0,0.9c-0.2,0.2-0.5,0.4-0.8,0.5
	c-0.7,0.2-1.2-0.4-2-0.5c0.1,0.2,0.4,0.2,0.3,0.5c-0.2,0.3-1.5,0.1-1.7,0.3c-0.1,0.1,0.4,0.6,0.5,0.6c0.3,0,1.2-0.4,1.5-0.4
	c0.3,0.1-1,0.9-0.8,1c1.1,0.8,2.3-0.2,2.5,0.3c0.1,0.3,1.2,0.4,1.2,0.7c-0.1,0.5,0.5,0,0.3,0.4c-0.1,0.4-2.2,0.7-2.5,0.6
	c-1.1-0.4-2.1-0.8-3.1-1.5c-0.3-0.2-0.7-0.1-0.9,0.3l0,0c-0.1,0.1-0.1,0.3,0,0.4c0.5,0.7,1.5,0.7,2,1.4c0.1,0.1-0.1,0.2-0.2,0.2
	c-1.1,0.1-2.2,0.1-3.2-0.1c0.1,0.5,0.8,0.4,0.7,0.8c-0.1,0.5-0.9,0.3-1.3,0.7c1.1,0.2,2.2-0.3,3.3-0.1c0.5,0.1,1.3-0.1,1.5,0.4
	c0.1,0.2-1.3,0.7-1.5,0.8c-0.1,0.1-2.3-0.1-1.1,0.6c1.3,0.1,2.6,0.3,3.8,0.8c0.2,0.1,1.1-0.2,1.1,0c0.1,0.5-0.1,0.7-0.5,1.1
	c-0.2,0.2-0.5,0.3-0.7,0.2c-0.3-0.1-0.6-0.2-0.9-0.3c-0.9-0.4-1.6-0.8-2.5-1.1c-0.6-0.3-1.2-0.5-1.9-0.7c0,0.4,0.8,0.6,0.2,1
	c-0.5,0.3-1-0.2-1.6-0.1c0.3,0.8,1.1,0.8,1.7,1c0.5,0.2,1.1-0.1,1.6,0.1c0.4,0.1,0.7,0.6,1.1,1c0.1,0.1,0,0.3-0.2,0.4
	c-0.8,0.3-1.6,0.4-2.4,0.4h-0.6c-0.9-0.3-1.8-0.3-2.7-0.1c0.2,0.5-0.4,0.5-0.7,0.8c0,0.1,0,0.1,0,0.2c1.1,0.5,2.6-0.4,3.3,0.7
	c0.2,0.3-0.3,0.4-0.4,0.4c-0.3,0-0.7-0.4-1-0.2c-0.1,0-0.1,0.2,0,0.3c0.3,0.3,0.6,0.6,1.1,0.6c0.6,0.2,1.2,0.3,1.8,0.3l0.1,0.1
	c0.8,0.3,0.9-0.2,1.7-0.1c0.5,0.1,0.7,0.3,0.8,0.6c0.1,0.5-0.8,1-1.3,0.8c-0.6-0.3,0-0.5-0.8-0.2c-0.1,0-0.2-0.2-0.3-0.2
	c-0.3,0-0.5-0.1-0.7-0.3c-0.5-0.3-1.1-0.1-1.8-0.2c-0.5,0-1,0-1.5,0.2c-0.4,0.1-0.8-0.2-1.3,0.1c-0.1,0.1-0.2,0.3-0.2,0.4
	c0.7,0.9,1.6,0.3,2.5,0.9c0.3,0.2,0.7,1.1,1,1.1c0.6,0.2,1.2,0.2,1.8,0.3c0.1,0,0.1,0.2,0.1,0.3c-0.3,0.3-0.7,0.5-1.1,0.4
	c-1.1,0-2-0.7-3.2-0.7c-0.3,0-0.5,0.2-0.5,0.5c0,0.1,0,0.2,0.1,0.3c0.2,0.3,0.4,0.6,0.8,0.8c0.3,0.2,0.9-0.2,1,0.4
	c0.1,0.3-0.1,0.5-0.3,0.6l-0.5,0.5c-0.4-0.1-0.7-0.3-1-0.6l-0.1-0.1c-0.9-0.3-1.7,0.3-2.5,0.6c-0.7,0.2-1.6-0.1-2.4,0.1
	c0.2,0.3,0.5,0.1,0.8,0.2c0.3,0.1,0.3,0.4,0.1,0.7c1-0.2,1.9,0.2,3,0.1l0.1,0.1c0,0.5-1.1,0.4-1.4,0.8c-0.2,0.2-0.6,0.1-0.8,0.4
	c0.3,0,0.6,0.1,0.8,0.3c-1,0.6-2.2,0.1-3.2,0.7c0,0,0,0.1,0,0.2c0.7-0.1,1.3,0,1.9,0.2c0.8,0.3,1.7,0.4,2.5,0.2
	c0.5-0.2,0.9-0.4,1.4-0.6l0.1-0.1h0.2c0.3,0,0.5-0.4,0.8-0.6c0.3-0.1,0.8-0.9,0.9-0.6c0.1,0.2-1.8,1.9,0.6,1.3
	c0.2-0.1,0.2-0.9,0.4-0.9c0.2,0,0,0.3,0.2,0.3c0.7,0,1.4,0,1,0.8c-0.1,0.2,0.3,0.7-0.1,0.9c-0.5,0.2-0.6,0-1.2,0.1
	c-0.4,0.1-0.1,0.5-0.3,0.6c-0.3-0.1-0.7-0.2-1-0.3c-0.2-0.1-1.2-0.9-0.7-0.1v0.4l-0.8,0.1c-0.3,0-0.6-0.3-1.2-0.1
	c0.1,0.4-1.3,0-1.1,0.3c0.5,0.9,1.7,0.9,2.5,0.9c0.3,0.1,0.6,0.1,0.9,0.3c0.7,0,1.4,0,2.2-0.2c0.2,0,0.6,0.3,0.5,0.4
	c-0.2,0.5-0.1,1.2,0.4,1.2s0.4-0.4,0.9,0.1c0.1,0.1,0,0.4-0.2,0.4c-0.7,0-1.4,0-2.1-0.2c-0.5-0.1-0.9-0.4-1.3-0.8
	c-0.2-0.2-0.7-0.4-1-0.2c-0.6,0.5,0.9,1.1,0.3,1.6c0.1-0.1-0.4-0.1-1.4-0.5c-0.3-0.1-0.7-0.4-0.9-0.7c0-0.1-1.6-2-1.4-0.8l0.4,0.9
	h-0.8c-0.5-0.2-0.1-1.1-0.6-1.2c-0.3-0.1-0.6-0.1-0.9,0.2c-0.1,0.1,0.2,0.2,0.1,0.4c-0.1,0.1-0.2,0.3-0.4,0.2
	c-0.4-0.3-0.9-0.4-1.4-0.4c-0.3,0.1-0.7,0.2-0.9,0.4c-0.3,0.2-0.8-0.1-1.1,0.1c-0.1,0-0.1,0.1-0.1,0.2c0.2,0.4,0.5,0.7,1,0.8
	c0.4,0,0.7,0.2,1.1,0.4c0.4,0.3,0.6,0.8,1.1,0.9c0.3,0.1,0.6-0.1,1,0.1c0.2,0.1,0.3,0.2,0.5,0.2l0,0l1.6-0.3c1,0,0.6,0.4,1.5,1.1
	c0,0,3-0.1,2.9,0c-0.8,0.5,2.3,0.2-0.2,1.7c-1.2,0.2-2.3,0.3-3.5,0.2c-0.9,0-0.8-0.7-1.6-0.4c-0.3,0.1-0.1,0.5-0.2,0.8
	c-0.1,0.2-0.2,0.3-0.4,0.3c-1.4,0-2.8-0.2-4.1-0.8c0.1,0.6,0.9,0.5,1,1.1c0,0.1-0.1,0.1-0.2,0.1c0,0.4,0.3,0.5,0.5,0.6
	c1.1,0.2,2.1,0.1,3.2,0.3c0.3,0.1,0.7,0.1,1.1,0.1c0.2,0,0.4,0.3,0.7,0.3c1.1,0.1,1-0.3,1.8,0.7c0.2,0.3,0.4,0.5,0.7,0.7
	c-0.5,0.6-0.6,1.4-1.4,1.1c-0.3-0.1-0.4-0.7-0.6-0.9c-0.5-0.6-1.4,0.1-2.2,0.2c-0.1,0-0.2,0.3-0.4,0.3c-0.5,0.2,0.3,0-0.3,0.2
	c-0.1,0-0.4-0.1-0.6-0.2c-0.5-0.1-0.5-0.8-1.1-0.9c-1.3-0.1-2.5-0.5-3.7-1c-0.3-0.1-1-0.2-1,0.1C24.7,74,25,74.4,25.3,74.6z"/>
</svg>
